<?xml version="1.0" encoding="UTF-8"?>
<svg id="Calque_2" xmlns="http://www.w3.org/2000/svg" viewBox="0 0 978.33 714.68">
  <defs>
    <style>
      .cls-1 {
        fill: #ffd219;
      }

      .cercle-cls-2 {
        opacity: .05;
      }

      .cercle-cls-2, .cls-3, .cls-4 {
        fill: #fff;
      }

      .cercle-cls-5 {
        fill: none;
        stroke: #fff;
        stroke-miterlimit: 10;
      }

      .cls-4 {
        font-family: MyriadPro-Regular, 'Myriad Pro';
        font-size: 21px;
      }

      .cls-6 {
        fill: #ff5e20;
      }
    </style>
  </defs>
  <g id="Calque_4">
    <g>
      <g>
        <line class="cercle-cls-5" x1="977.5" y1="363.79" x2="69.91" y2="363.79"/>
        <line class="cercle-cls-5" x1="974.98" y1="130.29" x2="67.39" y2="130.29"/>
        <line class="cercle-cls-5" x1="974.14" y1="9.95" x2="66.55" y2="9.95"/>
        <line class="cercle-cls-5" x1="976.66" y1="247.58" x2="69.07" y2="247.58"/>
        <rect class="cls-1" x="606.64" y="19.31" width="27.72" height="462.82"/>
        <rect class="cls-1" x="78.31" y="412.4" width="27.72" height="69.72"/>
        <rect class="cls-1" x="153.91" y="463.64" width="27.72" height="18.48"/>
        <rect class="cls-1" x="229.5" y="462.8" width="27.72" height="19.32"/>
        <rect class="cls-1" x="305.1" y="462.8" width="27.72" height="19.32"/>
        <rect class="cls-1" x="380.7" y="470.36" width="27.72" height="11.76"/>
        <rect class="cls-1" x="456.29" y="468.68" width="27.72" height="13.44"/>
        <rect class="cls-1" x="531.89" y="468.68" width="27.72" height="13.44"/>
        <rect class="cls-1" x="683.08" y="471.2" width="27.72" height="10.92"/>
        <rect class="cls-1" x="759.52" y="472.88" width="27.72" height="9.24"/>
        <rect class="cls-1" x="835.11" y="469.52" width="27.72" height="12.6"/>
        <rect class="cls-1" x="909.87" y="474.56" width="27.72" height="7.56"/>
        <rect class="cls-6" x="108.55" y="475.4" width="27.72" height="6.72"/>
        <rect class="cls-6" x="184.15" y="480.44" width="27.72" height="1.68"/>
        <rect class="cls-6" x="486.53" y="480.44" width="27.72" height="1.68"/>
        <rect class="cls-6" x="562.13" y="480.44" width="27.72" height="1.68"/>
        <rect class="cls-6" x="638.56" y="477.08" width="27.72" height="5.04"/>
        <rect class="cls-6" x="714.16" y="480.44" width="27.72" height="1.68"/>
        <rect class="cls-6" x="789.76" y="481.28" width="27.72" height=".84"/>
        <rect class="cls-6" x="866.19" y="481.28" width="27.72" height=".84"/>
        <line class="cercle-cls-5" x1="978.33" y1="482.54" x2="70.74" y2="482.54"/>
        <text class="cls-4" transform="translate(0 17.58)"><tspan x="0" y="0">8000</tspan></text>
        <text class="cls-4" transform="translate(.38 135.26)"><tspan x="0" y="0">6000</tspan></text>
        <text class="cls-4" transform="translate(.38 252.86)"><tspan x="0" y="0">3000</tspan></text>
        <text class="cls-4" transform="translate(1.22 370.45)"><tspan x="0" y="0">2000</tspan></text>
        <text class="cls-4" transform="translate(34.78 488.04)"><tspan x="0" y="0">0</tspan></text>
        <path class="cls-3" d="M111.42,581.92c.28.56.56,1.69.56,3.14,0,3.35-2.12,5.87-6.01,5.87s-6.24-2.52-6.24-6.21c0-1.48.32-2.42.53-2.82l1.25.37c-.28.58-.49,1.41-.49,2.4,0,2.79,1.78,4.64,4.9,4.64,2.91,0,4.78-1.68,4.78-4.57,0-.93-.19-1.89-.49-2.5l1.22-.32Z"/>
        <path class="cls-3" d="M108.07,578l3.74,1.23v1.59l-11.89-4.04v-1.85l11.89-4.06v1.64l-3.74,1.27v4.21ZM106.87,574.11l-3.42,1.16c-.78.26-1.48.44-2.17.62v.04c.71.18,1.43.37,2.15.6l3.44,1.16v-3.58Z"/>
        <path class="cls-3" d="M99.29,558.07h10.32c.76,0,1.62-.02,2.2-.07v1.39l-1.48.07v.04c.95.48,1.67,1.52,1.67,2.91,0,2.06-1.75,3.65-4.34,3.65-2.84.02-4.59-1.75-4.59-3.83,0-1.31.62-2.19,1.31-2.57v-.04h-5.1v-1.55ZM106.75,559.62c-.19,0-.46.02-.65.07-.99.23-1.8,1.08-1.8,2.24,0,1.6,1.41,2.56,3.3,2.56,1.73,0,3.16-.85,3.16-2.52,0-1.04-.69-1.99-1.85-2.28-.21-.05-.42-.07-.67-.07h-1.48Z"/>
        <path class="cls-3" d="M107.82,554.63c2.1-.04,2.96-1.38,2.96-2.93,0-1.11-.19-1.78-.44-2.36l1.11-.26c.25.55.53,1.48.53,2.84,0,2.63-1.73,4.2-4.3,4.2s-4.6-1.52-4.6-4c0-2.79,2.45-3.53,4.02-3.53.32,0,.56.04.72.05v6ZM106.71,550.08c-.99-.02-2.52.41-2.52,2.15,0,1.57,1.45,2.26,2.52,2.38v-4.53Z"/>
        <path class="cls-3" d="M100.08,542.87c-.14-.67-.25-1.73-.25-2.8,0-1.53.26-2.52.86-3.26.46-.62,1.16-.99,2.1-.99,1.15,0,2.15.76,2.61,2.01h.04c.28-1.13,1.22-2.45,2.98-2.45,1.02,0,1.8.41,2.38,1.01.76.83,1.11,2.17,1.11,4.11,0,1.06-.07,1.87-.14,2.38h-11.69ZM104.95,541.33v-1.39c0-1.62-.85-2.57-1.99-2.57-1.39,0-1.94,1.06-1.94,2.61,0,.71.05,1.11.11,1.36h3.83ZM110.64,541.33c.05-.3.07-.74.07-1.29,0-1.59-.58-3.05-2.31-3.05-1.62,0-2.29,1.39-2.29,3.07v1.27h4.53Z"/>
        <path class="cls-3" d="M111.81,528.63l-1.08.12v.05c.67.48,1.27,1.39,1.27,2.61,0,1.73-1.22,2.61-2.45,2.61-2.06,0-3.19-1.83-3.17-5.13h-.18c-.71,0-1.98.19-1.98,1.94,0,.79.25,1.62.63,2.22l-1.02.35c-.46-.71-.76-1.73-.76-2.8,0-2.61,1.78-3.24,3.49-3.24h3.19c.74,0,1.46-.04,2.05-.14v1.41ZM107.45,528.86c-.04,1.69.26,3.62,1.92,3.62,1,0,1.48-.67,1.48-1.46,0-1.11-.71-1.82-1.43-2.06-.16-.05-.33-.09-.49-.09h-1.48Z"/>
        <path class="cls-3" d="M110.22,525.07c.3-.46.62-1.27.62-2.05,0-1.13-.56-1.66-1.27-1.66-.74,0-1.15.44-1.57,1.59-.55,1.53-1.39,2.26-2.42,2.26-1.38,0-2.5-1.11-2.5-2.95,0-.86.25-1.62.53-2.1l1.13.39c-.21.34-.49.95-.49,1.75,0,.92.53,1.43,1.16,1.43.71,0,1.02-.51,1.45-1.62.56-1.48,1.31-2.24,2.57-2.24,1.5,0,2.56,1.16,2.56,3.19,0,.93-.23,1.8-.58,2.4l-1.18-.39Z"/>
        <path class="cls-3" d="M100.82,516h2.45v-2.22h1.18v2.22h4.6c1.06,0,1.66-.3,1.66-1.16,0-.41-.05-.71-.11-.9l1.16-.07c.12.3.21.78.21,1.38,0,.72-.23,1.31-.65,1.68-.46.44-1.22.6-2.22.6h-4.66v1.32h-1.18v-1.32h-2.05l-.41-1.52Z"/>
        <path class="cls-3" d="M100.87,510.31c.53-.02.95.37.95.99,0,.55-.42.93-.95.93s-.97-.41-.97-.97.42-.95.97-.95ZM111.81,512.03h-8.54v-1.55h8.54v1.55Z"/>
        <path class="cls-3" d="M111.81,503.18l-1.08.12v.05c.67.48,1.27,1.39,1.27,2.61,0,1.73-1.22,2.61-2.45,2.61-2.06,0-3.19-1.83-3.17-5.13h-.18c-.71,0-1.98.19-1.98,1.94,0,.79.25,1.62.63,2.22l-1.02.35c-.46-.71-.76-1.73-.76-2.8,0-2.61,1.78-3.24,3.49-3.24h3.19c.74,0,1.46-.04,2.05-.14v1.41ZM107.45,503.41c-.04,1.69.26,3.62,1.92,3.62,1,0,1.48-.67,1.48-1.46,0-1.11-.71-1.82-1.43-2.06-.16-.05-.33-.09-.49-.09h-1.48Z"/>
        <path class="cls-3" d="M185.47,634.43c.28.56.56,1.69.56,3.14,0,3.35-2.12,5.87-6.01,5.87s-6.24-2.52-6.24-6.21c0-1.48.32-2.42.53-2.82l1.25.37c-.28.58-.49,1.41-.49,2.4,0,2.79,1.78,4.64,4.9,4.64,2.91,0,4.78-1.68,4.78-4.57,0-.93-.19-1.89-.49-2.5l1.22-.32Z"/>
        <path class="cls-3" d="M185.47,624.57c.28.56.56,1.69.56,3.14,0,3.35-2.12,5.87-6.01,5.87s-6.24-2.52-6.24-6.21c0-1.48.32-2.42.53-2.82l1.25.37c-.28.58-.49,1.41-.49,2.4,0,2.79,1.78,4.64,4.9,4.64,2.91,0,4.78-1.68,4.78-4.57,0-.93-.19-1.89-.49-2.5l1.22-.32Z"/>
        <path class="cls-3" d="M173.33,611.59h10.32c.76,0,1.62-.02,2.2-.07v1.39l-1.48.07v.04c.95.48,1.67,1.52,1.67,2.91,0,2.06-1.75,3.65-4.34,3.65-2.84.02-4.59-1.75-4.59-3.83,0-1.31.62-2.19,1.31-2.57v-.04h-5.1v-1.55ZM180.79,613.14c-.19,0-.46.02-.65.07-.99.23-1.8,1.08-1.8,2.24,0,1.6,1.41,2.56,3.3,2.56,1.73,0,3.16-.85,3.16-2.52,0-1.04-.69-1.99-1.85-2.28-.21-.05-.42-.07-.67-.07h-1.48Z"/>
        <path class="cls-3" d="M181.87,608.15c2.1-.04,2.96-1.38,2.96-2.93,0-1.11-.19-1.78-.44-2.36l1.11-.26c.25.55.53,1.48.53,2.84,0,2.63-1.73,4.2-4.3,4.2s-4.6-1.52-4.6-4c0-2.79,2.45-3.53,4.02-3.53.32,0,.56.04.72.05v6ZM180.76,603.6c-.99-.02-2.52.41-2.52,2.15,0,1.57,1.45,2.26,2.52,2.38v-4.53Z"/>
        <path class="cls-3" d="M185.47,588.07c.28.56.56,1.69.56,3.14,0,3.35-2.12,5.87-6.01,5.87s-6.24-2.52-6.24-6.21c0-1.48.32-2.42.53-2.82l1.25.37c-.28.58-.49,1.41-.49,2.4,0,2.79,1.78,4.64,4.9,4.64,2.91,0,4.78-1.68,4.78-4.57,0-.93-.19-1.89-.49-2.5l1.22-.32Z"/>
        <path class="cls-3" d="M185.86,581.6l-1.08.12v.05c.67.48,1.27,1.39,1.27,2.61,0,1.73-1.22,2.61-2.45,2.61-2.06,0-3.19-1.83-3.17-5.13h-.18c-.71,0-1.98.19-1.98,1.94,0,.79.25,1.62.63,2.22l-1.02.35c-.46-.71-.76-1.73-.76-2.8,0-2.61,1.78-3.24,3.49-3.24h3.19c.74,0,1.46-.04,2.05-.14v1.41ZM181.5,581.83c-.04,1.69.26,3.62,1.92,3.62,1,0,1.48-.67,1.48-1.46,0-1.11-.71-1.82-1.43-2.06-.16-.05-.33-.09-.49-.09h-1.48Z"/>
        <path class="cls-3" d="M173.33,577.82v-1.55h12.52v1.55h-12.52Z"/>
        <path class="cls-3" d="M177.32,573.06l4.8-1.68c.78-.28,1.48-.51,2.19-.69v-.05c-.71-.19-1.41-.44-2.19-.72l-4.8-1.66v-1.62l8.54,3.35v1.48l-8.54,3.24v-1.66Z"/>
        <path class="cls-3" d="M174.92,563.45c.53-.02.95.37.95.99,0,.55-.42.93-.95.93s-.97-.41-.97-.97.42-.95.97-.95ZM185.86,565.18h-8.54v-1.55h8.54v1.55Z"/>
        <path class="cls-3" d="M174.13,557.26c-.14-.67-.25-1.73-.25-2.8,0-1.53.26-2.52.86-3.26.46-.62,1.16-.99,2.1-.99,1.15,0,2.15.76,2.61,2.01h.04c.28-1.13,1.22-2.45,2.98-2.45,1.02,0,1.8.41,2.38,1,.76.83,1.11,2.17,1.11,4.11,0,1.06-.07,1.87-.14,2.38h-11.69ZM178.99,555.72v-1.39c0-1.62-.85-2.57-1.99-2.57-1.39,0-1.94,1.06-1.94,2.61,0,.71.05,1.11.11,1.36h3.83ZM184.69,555.72c.05-.3.07-.74.07-1.29,0-1.59-.58-3.05-2.31-3.05-1.62,0-2.29,1.39-2.29,3.07v1.27h4.53Z"/>
        <path class="cls-3" d="M185.86,543.02l-1.08.12v.05c.67.48,1.27,1.39,1.27,2.61,0,1.73-1.22,2.61-2.45,2.61-2.06,0-3.19-1.83-3.17-5.13h-.18c-.71,0-1.98.19-1.98,1.94,0,.79.25,1.62.63,2.22l-1.02.35c-.46-.71-.76-1.73-.76-2.8,0-2.61,1.78-3.24,3.49-3.24h3.19c.74,0,1.46-.04,2.05-.14v1.41ZM181.5,543.25c-.04,1.69.26,3.62,1.92,3.62,1,0,1.48-.67,1.48-1.46,0-1.11-.71-1.82-1.43-2.06-.16-.05-.33-.09-.49-.09h-1.48Z"/>
        <path class="cls-3" d="M173.33,539.25v-1.55h12.52v1.55h-12.52Z"/>
        <path class="cls-3" d="M185.86,530.36l-1.08.12v.05c.67.48,1.27,1.39,1.27,2.61,0,1.73-1.22,2.61-2.45,2.61-2.06,0-3.19-1.83-3.17-5.13h-.18c-.71,0-1.98.19-1.98,1.94,0,.79.25,1.62.63,2.22l-1.02.35c-.46-.71-.76-1.73-.76-2.8,0-2.61,1.78-3.24,3.49-3.24h3.19c.74,0,1.46-.04,2.05-.14v1.41ZM181.5,530.59c-.04,1.69.26,3.62,1.92,3.62,1,0,1.48-.67,1.48-1.46,0-1.11-.71-1.82-1.43-2.06-.16-.05-.33-.09-.49-.09h-1.48Z"/>
        <path class="cls-3" d="M177.32,519.23c.62.04,1.31.07,2.35.07h4.96c1.96,0,3.16.39,3.9,1.22.78.83,1.02,2.03,1.02,3.1s-.25,2.15-.71,2.84l-1.18-.39c.35-.56.67-1.45.67-2.5,0-1.59-.83-2.75-2.98-2.75h-.95v.04c.79.48,1.43,1.39,1.43,2.72,0,2.12-1.8,3.63-4.16,3.63-2.89,0-4.53-1.89-4.53-3.84,0-1.48.78-2.29,1.48-2.66v-.04l-1.29-.07v-1.36ZM180.69,520.83c-.26,0-.49.02-.71.09-.9.28-1.64,1.04-1.64,2.17,0,1.48,1.25,2.54,3.23,2.54,1.68,0,3.07-.85,3.07-2.52,0-.95-.6-1.82-1.59-2.15-.26-.09-.56-.12-.83-.12h-1.53Z"/>
        <path class="cls-3" d="M179.63,516.83c-.88,0-1.6.02-2.31.07v-1.38l1.41-.09v-.04c-.81-.42-1.61-1.41-1.61-2.82,0-1.18.71-3.02,3.63-3.02h5.1v1.55h-4.92c-1.38,0-2.52.51-2.52,1.98,0,1.02.72,1.82,1.59,2.08.19.07.46.11.72.11h5.13v1.55h-6.23Z"/>
        <path class="cls-3" d="M181.87,506.18c2.1-.04,2.96-1.38,2.96-2.93,0-1.11-.19-1.78-.44-2.36l1.11-.26c.25.55.53,1.48.53,2.84,0,2.63-1.73,4.2-4.3,4.2s-4.6-1.52-4.6-4c0-2.79,2.45-3.53,4.02-3.53.32,0,.56.04.72.05v6ZM180.76,501.63c-.99-.02-2.52.41-2.52,2.15,0,1.57,1.45,2.26,2.52,2.38v-4.53Z"/>
        <path class="cls-3" d="M263.41,672.09c.28.56.56,1.69.56,3.14,0,3.35-2.12,5.87-6.01,5.87s-6.24-2.52-6.24-6.21c0-1.48.32-2.42.53-2.82l1.25.37c-.28.58-.49,1.41-.49,2.4,0,2.79,1.78,4.64,4.9,4.64,2.91,0,4.78-1.68,4.78-4.57,0-.93-.19-1.89-.49-2.5l1.22-.32Z"/>
        <path class="cls-3" d="M263.41,662.23c.28.56.56,1.69.56,3.14,0,3.35-2.12,5.87-6.01,5.87s-6.24-2.52-6.24-6.21c0-1.48.32-2.42.53-2.82l1.25.37c-.28.58-.49,1.41-.49,2.4,0,2.79,1.78,4.64,4.9,4.64,2.91,0,4.78-1.68,4.78-4.57,0-.93-.19-1.89-.49-2.5l1.22-.32Z"/>
        <path class="cls-3" d="M251.27,649.24h10.32c.76,0,1.62-.02,2.2-.07v1.39l-1.48.07v.04c.95.48,1.67,1.52,1.67,2.91,0,2.06-1.75,3.65-4.34,3.65-2.84.02-4.59-1.75-4.59-3.83,0-1.31.62-2.19,1.31-2.57v-.04h-5.1v-1.55ZM258.73,650.8c-.19,0-.46.02-.65.07-.99.23-1.8,1.08-1.8,2.24,0,1.6,1.41,2.56,3.3,2.56,1.73,0,3.16-.85,3.16-2.52,0-1.04-.69-1.99-1.85-2.28-.21-.05-.42-.07-.67-.07h-1.48Z"/>
        <path class="cls-3" d="M259.81,645.8c2.1-.04,2.96-1.38,2.96-2.93,0-1.11-.19-1.78-.44-2.36l1.11-.26c.25.55.53,1.48.53,2.84,0,2.63-1.73,4.2-4.3,4.2s-4.6-1.52-4.6-4c0-2.79,2.45-3.53,4.02-3.53.32,0,.56.04.72.05v6ZM258.7,641.25c-.99-.02-2.52.41-2.52,2.15,0,1.57,1.45,2.26,2.52,2.38v-4.53Z"/>
        <path class="cls-3" d="M251.91,634.04v-6.4h1.29v4.87h3.95v-4.5h1.27v4.5h5.38v1.53h-11.89Z"/>
        <path class="cls-3" d="M252.86,624.23c.53-.02.95.37.95.99,0,.55-.42.93-.95.93s-.97-.41-.97-.97.42-.95.97-.95ZM263.79,625.96h-8.54v-1.55h8.54v1.55Z"/>
        <path class="cls-3" d="M261.47,614.69c.88,0,1.66-.02,2.33-.07v1.38l-1.39.09v.04c.69.41,1.59,1.31,1.59,2.82,0,1.34-.74,2.95-3.74,2.95h-4.99v-1.55h4.73c1.62,0,2.72-.49,2.72-1.9,0-1.04-.72-1.76-1.41-2.05-.23-.09-.51-.14-.79-.14h-5.24v-1.55h6.21Z"/>
        <path class="cls-3" d="M257.57,612.11c-.88,0-1.6.02-2.31.07v-1.36l1.38-.07v-.05c-.81-.48-1.57-1.27-1.57-2.68,0-1.16.71-2.05,1.71-2.42v-.04c-.48-.26-.85-.6-1.11-.95-.39-.51-.6-1.08-.6-1.89,0-1.13.74-2.8,3.7-2.8h5.03v1.52h-4.83c-1.64,0-2.63.6-2.63,1.85,0,.88.65,1.57,1.41,1.83.21.07.49.12.78.12h5.27v1.52h-5.11c-1.36,0-2.35.6-2.35,1.78,0,.97.78,1.68,1.55,1.92.23.09.49.12.76.12h5.15v1.52h-6.23Z"/>
        <path class="cls-3" d="M251.71,596.38l4.23.3v.95l-4.23.28v-1.53Z"/>
        <path class="cls-3" d="M259.46,586.63c3.16,0,4.53,2.19,4.53,4.25,0,2.31-1.69,4.09-4.39,4.09-2.86,0-4.53-1.87-4.53-4.23s1.78-4.11,4.39-4.11ZM259.54,593.4c1.87,0,3.28-1.08,3.28-2.59s-1.39-2.59-3.32-2.59c-1.45,0-3.28.72-3.28,2.56s1.69,2.63,3.32,2.63Z"/>
        <path class="cls-3" d="M257.92,584.67c-1,0-1.87.02-2.66.07v-1.36l1.67-.05v-.07c-1.15-.39-1.87-1.32-1.87-2.36,0-.18.02-.3.05-.44h1.46c-.04.16-.05.32-.05.53,0,1.09.83,1.87,1.99,2.08.21.04.46.07.72.07h4.55v1.53h-5.87Z"/>
        <path class="cls-3" d="M263.79,578.9c-.58-.04-1.45-.07-2.2-.07h-10.32v-1.53h5.36v-.04c-.95-.55-1.57-1.53-1.57-2.91,0-2.12,1.76-3.62,4.36-3.6,3.05,0,4.57,1.92,4.57,3.83,0,1.23-.48,2.22-1.6,2.86v.05l1.41.07v1.34ZM260.37,577.29c.19,0,.39-.04.56-.07,1.08-.3,1.82-1.2,1.82-2.33,0-1.62-1.32-2.59-3.28-2.59-1.71,0-3.17.88-3.17,2.54,0,1.06.72,2.05,1.9,2.36.18.04.39.09.63.09h1.53Z"/>
        <path class="cls-3" d="M261.47,561.65c.88,0,1.66-.02,2.33-.07v1.38l-1.39.09v.04c.69.41,1.59,1.31,1.59,2.82,0,1.34-.74,2.95-3.74,2.95h-4.99v-1.55h4.73c1.62,0,2.72-.49,2.72-1.9,0-1.04-.72-1.76-1.41-2.05-.23-.09-.51-.14-.79-.14h-5.24v-1.55h6.21Z"/>
        <path class="cls-3" d="M263.41,546.97c.28.56.56,1.69.56,3.14,0,3.35-2.12,5.87-6.01,5.87s-6.24-2.52-6.24-6.21c0-1.48.32-2.42.53-2.82l1.25.37c-.28.58-.49,1.41-.49,2.4,0,2.79,1.78,4.64,4.9,4.64,2.91,0,4.78-1.68,4.78-4.57,0-.93-.19-1.89-.49-2.5l1.22-.32Z"/>
        <path class="cls-3" d="M263.79,540.5l-1.08.12v.05c.67.48,1.27,1.39,1.27,2.61,0,1.73-1.22,2.61-2.45,2.61-2.06,0-3.19-1.83-3.17-5.13h-.18c-.71,0-1.98.19-1.98,1.94,0,.79.25,1.62.63,2.22l-1.02.35c-.46-.71-.76-1.73-.76-2.8,0-2.61,1.78-3.24,3.49-3.24h3.19c.74,0,1.46-.04,2.05-.14v1.41ZM259.44,540.73c-.04,1.69.26,3.62,1.92,3.62,1,0,1.48-.67,1.48-1.46,0-1.11-.71-1.82-1.43-2.06-.16-.05-.33-.09-.49-.09h-1.48Z"/>
        <path class="cls-3" d="M262.21,536.94c.3-.46.62-1.27.62-2.05,0-1.13-.56-1.66-1.27-1.66-.74,0-1.15.44-1.57,1.59-.55,1.53-1.39,2.26-2.42,2.26-1.38,0-2.5-1.11-2.5-2.95,0-.86.25-1.62.53-2.1l1.13.39c-.21.33-.49.95-.49,1.75,0,.92.53,1.43,1.16,1.43.71,0,1.02-.51,1.45-1.62.56-1.48,1.31-2.24,2.57-2.24,1.5,0,2.56,1.16,2.56,3.19,0,.93-.23,1.8-.58,2.4l-1.18-.39Z"/>
        <path class="cls-3" d="M252.81,527.87h2.45v-2.22h1.18v2.22h4.6c1.06,0,1.66-.3,1.66-1.16,0-.41-.05-.71-.11-.9l1.16-.07c.12.3.21.78.21,1.38,0,.72-.23,1.31-.65,1.67-.46.44-1.22.6-2.22.6h-4.66v1.32h-1.18v-1.32h-2.05l-.41-1.52Z"/>
        <path class="cls-3" d="M259.81,523.14c2.1-.04,2.96-1.38,2.96-2.93,0-1.11-.19-1.78-.44-2.36l1.11-.26c.25.55.53,1.48.53,2.84,0,2.63-1.73,4.2-4.3,4.2s-4.6-1.52-4.6-4c0-2.79,2.45-3.53,4.02-3.53.32,0,.56.04.72.05v6ZM258.7,518.59c-.99-.02-2.52.41-2.52,2.15,0,1.57,1.45,2.26,2.52,2.38v-4.53Z"/>
        <path class="cls-3" d="M251.27,515.17v-1.55h12.52v1.55h-12.52Z"/>
        <path class="cls-3" d="M251.27,511.01v-1.55h12.52v1.55h-12.52Z"/>
        <path class="cls-3" d="M261.47,499.7c.88,0,1.66-.02,2.33-.07v1.38l-1.39.09v.04c.69.41,1.59,1.31,1.59,2.82,0,1.34-.74,2.95-3.74,2.95h-4.99v-1.55h4.73c1.62,0,2.72-.49,2.72-1.9,0-1.04-.72-1.76-1.41-2.05-.23-.09-.51-.14-.79-.14h-5.24v-1.55h6.21Z"/>
        <path class="cls-3" d="M337,705.66c.28.56.56,1.69.56,3.14,0,3.35-2.12,5.87-6.01,5.87s-6.24-2.52-6.24-6.21c0-1.48.32-2.42.53-2.82l1.25.37c-.28.58-.49,1.41-.49,2.4,0,2.79,1.78,4.64,4.9,4.64,2.91,0,4.78-1.68,4.78-4.57,0-.93-.19-1.89-.49-2.5l1.22-.32Z"/>
        <path class="cls-3" d="M337,695.8c.28.56.56,1.69.56,3.14,0,3.35-2.12,5.87-6.01,5.87s-6.24-2.52-6.24-6.21c0-1.48.32-2.42.53-2.82l1.25.37c-.28.58-.49,1.41-.49,2.4,0,2.79,1.78,4.64,4.9,4.64,2.91,0,4.78-1.68,4.78-4.57,0-.93-.19-1.89-.49-2.5l1.22-.32Z"/>
        <path class="cls-3" d="M324.87,682.82h10.32c.76,0,1.62-.02,2.2-.07v1.39l-1.48.07v.04c.95.48,1.68,1.52,1.68,2.91,0,2.06-1.75,3.65-4.34,3.65-2.84.02-4.59-1.75-4.59-3.83,0-1.31.62-2.19,1.31-2.57v-.04h-5.1v-1.55ZM332.33,684.37c-.19,0-.46.02-.65.07-.99.23-1.8,1.08-1.8,2.24,0,1.6,1.41,2.56,3.3,2.56,1.73,0,3.16-.85,3.16-2.52,0-1.04-.69-1.99-1.85-2.28-.21-.05-.42-.07-.67-.07h-1.48Z"/>
        <path class="cls-3" d="M333.41,679.38c2.1-.04,2.96-1.38,2.96-2.93,0-1.11-.19-1.78-.44-2.36l1.11-.26c.25.55.53,1.48.53,2.84,0,2.63-1.73,4.2-4.3,4.2s-4.6-1.52-4.6-4c0-2.79,2.45-3.53,4.02-3.53.32,0,.56.04.72.05v6ZM332.29,674.83c-.99-.02-2.52.41-2.52,2.15,0,1.57,1.45,2.26,2.52,2.38v-4.53Z"/>
        <path class="cls-3" d="M324.87,667.67v-1.55h12.52v1.55h-12.52Z"/>
        <path class="cls-3" d="M337.39,658.78l-1.08.12v.05c.67.48,1.27,1.39,1.27,2.61,0,1.73-1.22,2.61-2.45,2.61-2.06,0-3.19-1.83-3.17-5.13h-.18c-.71,0-1.98.19-1.98,1.94,0,.79.25,1.62.63,2.22l-1.02.35c-.46-.71-.76-1.73-.76-2.8,0-2.61,1.78-3.24,3.49-3.24h3.19c.74,0,1.46-.04,2.05-.14v1.41ZM333.04,659.01c-.04,1.69.26,3.62,1.92,3.62,1.01,0,1.48-.67,1.48-1.46,0-1.11-.71-1.82-1.43-2.06-.16-.05-.34-.09-.49-.09h-1.48Z"/>
        <path class="cls-3" d="M337,642.91c.28.56.56,1.69.56,3.14,0,3.35-2.12,5.87-6.01,5.87s-6.24-2.52-6.24-6.21c0-1.48.32-2.42.53-2.82l1.25.37c-.28.58-.49,1.41-.49,2.4,0,2.79,1.78,4.64,4.9,4.64,2.91,0,4.78-1.68,4.78-4.57,0-.93-.19-1.89-.49-2.5l1.22-.32Z"/>
        <path class="cls-3" d="M337.39,636.43l-1.08.12v.05c.67.48,1.27,1.39,1.27,2.61,0,1.73-1.22,2.61-2.45,2.61-2.06,0-3.19-1.83-3.17-5.13h-.18c-.71,0-1.98.19-1.98,1.94,0,.79.25,1.62.63,2.22l-1.02.35c-.46-.71-.76-1.73-.76-2.8,0-2.61,1.78-3.24,3.49-3.24h3.19c.74,0,1.46-.04,2.05-.14v1.41ZM333.04,636.66c-.04,1.69.26,3.62,1.92,3.62,1.01,0,1.48-.67,1.48-1.46,0-1.11-.71-1.82-1.43-2.06-.16-.05-.34-.09-.49-.09h-1.48Z"/>
        <path class="cls-3" d="M335.8,632.87c.3-.46.62-1.27.62-2.05,0-1.13-.56-1.66-1.27-1.66-.74,0-1.15.44-1.57,1.59-.55,1.53-1.39,2.26-2.42,2.26-1.38,0-2.5-1.11-2.5-2.95,0-.86.25-1.62.53-2.1l1.13.39c-.21.33-.49.95-.49,1.75,0,.92.53,1.43,1.16,1.43.71,0,1.02-.51,1.45-1.62.56-1.48,1.31-2.24,2.57-2.24,1.5,0,2.56,1.16,2.56,3.19,0,.93-.23,1.8-.58,2.4l-1.18-.39Z"/>
        <path class="cls-3" d="M326.4,623.8h2.45v-2.22h1.18v2.22h4.6c1.06,0,1.66-.3,1.66-1.16,0-.41-.05-.71-.11-.9l1.16-.07c.12.3.21.78.21,1.38,0,.72-.23,1.31-.65,1.67-.46.44-1.22.6-2.22.6h-4.66v1.32h-1.18v-1.32h-2.05l-.41-1.52Z"/>
        <path class="cls-3" d="M337.39,615.11l-1.08.12v.05c.67.48,1.27,1.39,1.27,2.61,0,1.73-1.22,2.61-2.45,2.61-2.06,0-3.19-1.83-3.17-5.13h-.18c-.71,0-1.98.19-1.98,1.94,0,.79.25,1.62.63,2.22l-1.02.35c-.46-.71-.76-1.73-.76-2.8,0-2.61,1.78-3.24,3.49-3.24h3.19c.74,0,1.46-.04,2.05-.14v1.41ZM333.04,615.34c-.04,1.69.26,3.62,1.92,3.62,1.01,0,1.48-.67,1.48-1.46,0-1.11-.71-1.82-1.43-2.06-.16-.05-.34-.09-.49-.09h-1.48Z"/>
        <path class="cls-3" d="M328.86,603.98c.62.04,1.31.07,2.35.07h4.96c1.96,0,3.16.39,3.9,1.22.78.83,1.02,2.03,1.02,3.1s-.25,2.15-.71,2.84l-1.18-.39c.35-.56.67-1.45.67-2.5,0-1.59-.83-2.75-2.98-2.75h-.95v.04c.79.48,1.43,1.39,1.43,2.72,0,2.12-1.8,3.63-4.16,3.63-2.89,0-4.53-1.89-4.53-3.84,0-1.48.78-2.29,1.48-2.66v-.04l-1.29-.07v-1.36ZM332.22,605.58c-.26,0-.49.02-.71.09-.9.28-1.64,1.04-1.64,2.17,0,1.48,1.25,2.54,3.23,2.54,1.67,0,3.07-.85,3.07-2.52,0-.95-.6-1.82-1.59-2.15-.26-.09-.56-.12-.83-.12h-1.53Z"/>
        <path class="cls-3" d="M331.17,601.58c-.88,0-1.61.02-2.31.07v-1.38l1.41-.09v-.04c-.81-.42-1.6-1.41-1.6-2.82,0-1.18.71-3.02,3.63-3.02h5.1v1.55h-4.92c-1.38,0-2.52.51-2.52,1.98,0,1.02.72,1.82,1.59,2.08.19.07.46.11.72.11h5.13v1.55h-6.23Z"/>
        <path class="cls-3" d="M326.46,590.06c.53-.02.95.37.95.99,0,.55-.42.94-.95.94s-.97-.41-.97-.97.42-.95.97-.95ZM337.39,591.79h-8.54v-1.55h8.54v1.55Z"/>
        <path class="cls-3" d="M337.07,581.58c.21.41.49,1.31.49,2.45,0,2.57-1.75,4.25-4.36,4.25s-4.53-1.8-4.53-4.59c0-.92.23-1.73.44-2.15l1.2.35c-.21.37-.41.95-.41,1.8,0,1.96,1.45,3.02,3.23,3.02,1.98,0,3.19-1.27,3.19-2.96,0-.88-.23-1.46-.42-1.9l1.16-.26Z"/>
        <path class="cls-3" d="M337.07,573.78c.21.41.49,1.31.49,2.45,0,2.57-1.75,4.25-4.36,4.25s-4.53-1.8-4.53-4.59c0-.92.23-1.73.44-2.15l1.2.35c-.21.37-.41.95-.41,1.8,0,1.96,1.45,3.02,3.23,3.02,1.98,0,3.19-1.27,3.19-2.96,0-.88-.23-1.46-.42-1.9l1.16-.26Z"/>
        <path class="cls-3" d="M326.46,570.23c.53-.02.95.37.95.99,0,.55-.42.93-.95.93s-.97-.41-.97-.97.42-.95.97-.95ZM337.39,571.96h-8.54v-1.55h8.54v1.55Z"/>
        <path class="cls-3" d="M337.39,563.11l-1.08.12v.05c.67.48,1.27,1.39,1.27,2.61,0,1.73-1.22,2.61-2.45,2.61-2.06,0-3.19-1.83-3.17-5.13h-.18c-.71,0-1.98.19-1.98,1.94,0,.79.25,1.62.63,2.22l-1.02.35c-.46-.71-.76-1.73-.76-2.8,0-2.61,1.78-3.24,3.49-3.24h3.19c.74,0,1.46-.04,2.05-.14v1.41ZM333.04,563.34c-.04,1.69.26,3.62,1.92,3.62,1.01,0,1.48-.67,1.48-1.46,0-1.11-.71-1.82-1.43-2.06-.16-.05-.34-.09-.49-.09h-1.48Z"/>
        <path class="cls-3" d="M337,545.31c.28.56.56,1.69.56,3.14,0,3.35-2.12,5.87-6.01,5.87s-6.24-2.52-6.24-6.21c0-1.48.32-2.42.53-2.82l1.25.37c-.28.58-.49,1.41-.49,2.4,0,2.79,1.78,4.64,4.9,4.64,2.91,0,4.78-1.67,4.78-4.57,0-.94-.19-1.89-.49-2.5l1.22-.32Z"/>
        <path class="cls-3" d="M337.39,538.84l-1.08.12v.05c.67.48,1.27,1.39,1.27,2.61,0,1.73-1.22,2.61-2.45,2.61-2.06,0-3.19-1.83-3.17-5.13h-.18c-.71,0-1.98.19-1.98,1.94,0,.79.25,1.62.63,2.22l-1.02.35c-.46-.71-.76-1.73-.76-2.8,0-2.61,1.78-3.24,3.49-3.24h3.19c.74,0,1.46-.04,2.05-.14v1.41ZM333.04,539.06c-.04,1.69.26,3.62,1.92,3.62,1.01,0,1.48-.67,1.48-1.46,0-1.11-.71-1.82-1.43-2.06-.16-.05-.34-.09-.49-.09h-1.48Z"/>
        <path class="cls-3" d="M335.8,535.27c.3-.46.62-1.27.62-2.05,0-1.13-.56-1.66-1.27-1.66-.74,0-1.15.44-1.57,1.59-.55,1.53-1.39,2.26-2.42,2.26-1.38,0-2.5-1.11-2.5-2.95,0-.86.25-1.62.53-2.1l1.13.39c-.21.33-.49.95-.49,1.75,0,.92.53,1.43,1.16,1.43.71,0,1.02-.51,1.45-1.62.56-1.48,1.31-2.24,2.57-2.24,1.5,0,2.56,1.16,2.56,3.19,0,.93-.23,1.8-.58,2.4l-1.18-.39Z"/>
        <path class="cls-3" d="M326.46,526.35c.53-.02.95.37.95.99,0,.55-.42.94-.95.94s-.97-.41-.97-.97.42-.95.97-.95ZM337.39,528.07h-8.54v-1.55h8.54v1.55Z"/>
        <path class="cls-3" d="M331.17,523.95c-.88,0-1.61.02-2.31.07v-1.38l1.41-.09v-.04c-.81-.42-1.6-1.41-1.6-2.82,0-1.18.71-3.02,3.63-3.02h5.1v1.55h-4.92c-1.38,0-2.52.51-2.52,1.98,0,1.02.72,1.82,1.59,2.08.19.07.46.11.72.11h5.13v1.55h-6.23Z"/>
        <path class="cls-3" d="M337.07,508.07c.21.41.49,1.31.49,2.45,0,2.57-1.75,4.25-4.36,4.25s-4.53-1.8-4.53-4.59c0-.92.23-1.73.44-2.15l1.2.35c-.21.37-.41.95-.41,1.8,0,1.96,1.45,3.02,3.23,3.02,1.98,0,3.19-1.27,3.19-2.96,0-.88-.23-1.46-.42-1.9l1.16-.26Z"/>
        <path class="cls-3" d="M337.39,501.53l-1.08.12v.05c.67.48,1.27,1.39,1.27,2.61,0,1.73-1.22,2.61-2.45,2.61-2.06,0-3.19-1.83-3.17-5.13h-.18c-.71,0-1.98.19-1.98,1.94,0,.79.25,1.62.63,2.22l-1.02.35c-.46-.71-.76-1.73-.76-2.8,0-2.61,1.78-3.24,3.49-3.24h3.19c.74,0,1.46-.04,2.05-.14v1.41ZM333.04,501.76c-.04,1.69.26,3.61,1.92,3.61,1.01,0,1.48-.67,1.48-1.46,0-1.11-.71-1.82-1.43-2.06-.16-.05-.34-.09-.49-.09h-1.48Z"/>
        <path class="cls-3" d="M413.04,637.26c.28.56.56,1.69.56,3.14,0,3.35-2.12,5.87-6.01,5.87s-6.24-2.52-6.24-6.21c0-1.48.32-2.42.53-2.82l1.25.37c-.28.58-.49,1.41-.49,2.4,0,2.79,1.78,4.64,4.9,4.64,2.91,0,4.78-1.68,4.78-4.57,0-.93-.19-1.89-.49-2.5l1.22-.32Z"/>
        <path class="cls-3" d="M413.04,627.4c.28.56.56,1.69.56,3.14,0,3.35-2.12,5.87-6.01,5.87s-6.24-2.52-6.24-6.21c0-1.48.32-2.42.53-2.82l1.25.37c-.28.58-.49,1.41-.49,2.4,0,2.79,1.78,4.64,4.9,4.64,2.91,0,4.78-1.68,4.78-4.57,0-.93-.19-1.89-.49-2.5l1.22-.32Z"/>
        <path class="cls-3" d="M400.91,614.42h10.32c.76,0,1.62-.02,2.2-.07v1.39l-1.48.07v.04c.95.48,1.68,1.52,1.68,2.91,0,2.06-1.75,3.65-4.34,3.65-2.84.02-4.59-1.75-4.59-3.83,0-1.31.62-2.19,1.31-2.57v-.04h-5.1v-1.55ZM408.37,615.97c-.19,0-.46.02-.65.07-.99.23-1.8,1.08-1.8,2.24,0,1.6,1.41,2.56,3.3,2.56,1.73,0,3.16-.85,3.16-2.52,0-1.04-.69-1.99-1.85-2.28-.21-.05-.42-.07-.67-.07h-1.48Z"/>
        <path class="cls-3" d="M409.44,610.98c2.1-.04,2.96-1.38,2.96-2.93,0-1.11-.19-1.78-.44-2.36l1.11-.26c.25.55.53,1.48.53,2.84,0,2.63-1.73,4.2-4.3,4.2s-4.6-1.52-4.6-4c0-2.79,2.45-3.53,4.02-3.53.32,0,.56.04.72.05v6ZM408.33,606.43c-.99-.02-2.52.41-2.52,2.15,0,1.57,1.45,2.26,2.52,2.38v-4.53Z"/>
        <path class="cls-3" d="M400.91,599.27v-1.55h12.52v1.55h-12.52Z"/>
        <path class="cls-3" d="M413.43,590.38l-1.08.12v.05c.67.48,1.27,1.39,1.27,2.61,0,1.73-1.22,2.61-2.45,2.61-2.06,0-3.19-1.83-3.17-5.13h-.18c-.71,0-1.98.19-1.98,1.94,0,.79.25,1.62.63,2.22l-1.02.35c-.46-.71-.76-1.73-.76-2.8,0-2.61,1.78-3.24,3.49-3.24h3.19c.74,0,1.46-.04,2.05-.14v1.41ZM409.07,590.61c-.04,1.69.26,3.62,1.92,3.62,1.01,0,1.48-.67,1.48-1.46,0-1.11-.71-1.82-1.43-2.06-.16-.05-.34-.09-.49-.09h-1.48Z"/>
        <path class="cls-3" d="M413.04,574.51c.28.56.56,1.69.56,3.14,0,3.35-2.12,5.87-6.01,5.87s-6.24-2.52-6.24-6.21c0-1.48.32-2.42.53-2.82l1.25.37c-.28.58-.49,1.41-.49,2.4,0,2.79,1.78,4.64,4.9,4.64,2.91,0,4.78-1.68,4.78-4.57,0-.93-.19-1.89-.49-2.5l1.22-.32Z"/>
        <path class="cls-3" d="M409.09,565.1c3.16,0,4.53,2.19,4.53,4.25,0,2.31-1.69,4.09-4.39,4.09-2.86,0-4.53-1.87-4.53-4.23s1.78-4.11,4.39-4.11ZM409.18,571.88c1.87,0,3.28-1.08,3.28-2.59s-1.39-2.59-3.32-2.59c-1.45,0-3.28.72-3.28,2.56s1.69,2.63,3.32,2.63Z"/>
        <path class="cls-3" d="M411.84,563.36c.3-.46.62-1.27.62-2.05,0-1.13-.56-1.66-1.27-1.66-.74,0-1.15.44-1.57,1.59-.55,1.53-1.39,2.26-2.42,2.26-1.38,0-2.5-1.11-2.5-2.94,0-.86.25-1.62.53-2.1l1.13.39c-.21.34-.49.95-.49,1.75,0,.92.53,1.43,1.16,1.43.71,0,1.02-.51,1.45-1.62.56-1.48,1.31-2.24,2.57-2.24,1.5,0,2.56,1.16,2.56,3.19,0,.94-.23,1.8-.58,2.4l-1.18-.39Z"/>
        <path class="cls-3" d="M402.44,554.29h2.45v-2.22h1.18v2.22h4.6c1.06,0,1.66-.3,1.66-1.16,0-.41-.05-.71-.11-.9l1.16-.07c.12.3.21.78.21,1.38,0,.72-.23,1.31-.65,1.67-.46.44-1.22.6-2.22.6h-4.66v1.32h-1.18v-1.32h-2.05l-.41-1.52Z"/>
        <path class="cls-3" d="M413.43,545.6l-1.08.12v.05c.67.48,1.27,1.39,1.27,2.61,0,1.73-1.22,2.61-2.45,2.61-2.06,0-3.19-1.83-3.17-5.13h-.18c-.71,0-1.98.19-1.98,1.94,0,.79.25,1.62.63,2.22l-1.02.35c-.46-.71-.76-1.73-.76-2.8,0-2.61,1.78-3.24,3.49-3.24h3.19c.74,0,1.46-.04,2.05-.14v1.41ZM409.07,545.83c-.04,1.69.26,3.61,1.92,3.61,1.01,0,1.48-.67,1.48-1.46,0-1.11-.71-1.82-1.43-2.06-.16-.05-.34-.09-.49-.09h-1.48Z"/>
        <path class="cls-3" d="M413.43,536.05l-11.89,3.88v-1.66l5.86-1.85c1.61-.51,3.05-.95,4.44-1.27v-.04c-1.38-.34-2.87-.83-4.43-1.36l-5.87-2.01v-1.64l11.89,4.25v1.69Z"/>
        <path class="cls-3" d="M409.44,528.59c2.1-.04,2.96-1.38,2.96-2.93,0-1.11-.19-1.78-.44-2.36l1.11-.26c.25.55.53,1.48.53,2.84,0,2.63-1.73,4.2-4.3,4.2s-4.6-1.52-4.6-4c0-2.79,2.45-3.53,4.02-3.53.32,0,.56.04.72.05v6ZM408.33,524.04c-.99-.02-2.52.41-2.52,2.15,0,1.57,1.45,2.26,2.52,2.38v-4.53Z"/>
        <path class="cls-3" d="M407.56,520.62c-1.01,0-1.87.02-2.66.07v-1.36l1.68-.05v-.07c-1.15-.39-1.87-1.32-1.87-2.36,0-.18.02-.3.05-.44h1.46c-.04.16-.05.32-.05.53,0,1.09.83,1.87,1.99,2.08.21.04.46.07.72.07h4.55v1.53h-5.87Z"/>
        <path class="cls-3" d="M400.91,507.66h10.32c.76,0,1.62-.02,2.2-.07v1.39l-1.48.07v.04c.95.48,1.68,1.52,1.68,2.91,0,2.06-1.75,3.65-4.34,3.65-2.84.02-4.59-1.75-4.59-3.83,0-1.31.62-2.19,1.31-2.57v-.04h-5.1v-1.55ZM408.37,509.21c-.19,0-.46.02-.65.07-.99.23-1.8,1.08-1.8,2.24,0,1.61,1.41,2.56,3.3,2.56,1.73,0,3.16-.85,3.16-2.52,0-1.04-.69-1.99-1.85-2.27-.21-.05-.42-.07-.67-.07h-1.48Z"/>
        <path class="cls-3" d="M409.44,504.21c2.1-.04,2.96-1.38,2.96-2.93,0-1.11-.19-1.78-.44-2.36l1.11-.26c.25.55.53,1.48.53,2.84,0,2.63-1.73,4.2-4.3,4.2s-4.6-1.52-4.6-4c0-2.79,2.45-3.53,4.02-3.53.32,0,.56.04.72.05v6ZM408.33,499.66c-.99-.02-2.52.41-2.52,2.15,0,1.57,1.45,2.26,2.52,2.38v-4.53Z"/>
        <path class="cls-3" d="M489.3,689.97c.28.56.56,1.69.56,3.14,0,3.35-2.12,5.87-6.01,5.87s-6.24-2.52-6.24-6.21c0-1.48.32-2.42.53-2.82l1.25.37c-.28.58-.49,1.41-.49,2.4,0,2.79,1.78,4.64,4.9,4.64,2.91,0,4.78-1.68,4.78-4.57,0-.93-.19-1.89-.49-2.5l1.22-.32Z"/>
        <path class="cls-3" d="M489.3,680.11c.28.56.56,1.69.56,3.14,0,3.35-2.12,5.87-6.01,5.87s-6.24-2.52-6.24-6.21c0-1.48.32-2.42.53-2.82l1.25.37c-.28.58-.49,1.41-.49,2.4,0,2.79,1.78,4.64,4.9,4.64,2.91,0,4.78-1.68,4.78-4.57,0-.93-.19-1.89-.49-2.5l1.22-.32Z"/>
        <path class="cls-3" d="M477.16,667.13h10.32c.76,0,1.62-.02,2.2-.07v1.39l-1.48.07v.04c.95.48,1.67,1.52,1.67,2.91,0,2.06-1.75,3.65-4.34,3.65-2.84.02-4.59-1.75-4.59-3.83,0-1.31.62-2.19,1.31-2.57v-.04h-5.1v-1.55ZM484.62,668.68c-.19,0-.46.02-.65.07-.99.23-1.8,1.08-1.8,2.24,0,1.6,1.41,2.56,3.3,2.56,1.73,0,3.16-.85,3.16-2.52,0-1.04-.69-1.99-1.85-2.28-.21-.05-.42-.07-.67-.07h-1.48Z"/>
        <path class="cls-3" d="M485.7,663.69c2.1-.04,2.96-1.38,2.96-2.93,0-1.11-.19-1.78-.44-2.36l1.11-.26c.25.55.53,1.48.53,2.84,0,2.63-1.73,4.2-4.3,4.2s-4.6-1.52-4.6-4c0-2.79,2.45-3.53,4.02-3.53.32,0,.56.04.72.05v6ZM484.59,659.14c-.99-.02-2.52.41-2.52,2.15,0,1.57,1.45,2.26,2.52,2.38v-4.53Z"/>
        <path class="cls-3" d="M477.16,651.98v-1.55h12.52v1.55h-12.52Z"/>
        <path class="cls-3" d="M475.15,643.11l2.01-1.85v1.29l-1.22,1.13v.04l1.22,1.13v1.25l-2.01-1.8v-1.18ZM477.8,642.91h11.89v1.53h-11.89v-1.53Z"/>
        <path class="cls-3" d="M477.16,640.11v-1.55h12.52v1.55h-12.52Z"/>
        <path class="cls-3" d="M485.7,635.08c2.1-.04,2.96-1.38,2.96-2.93,0-1.11-.19-1.78-.44-2.36l1.11-.26c.25.55.53,1.48.53,2.84,0,2.63-1.73,4.2-4.3,4.2s-4.6-1.52-4.6-4c0-2.79,2.45-3.53,4.02-3.53.32,0,.56.04.72.05v6ZM484.59,630.53c-.99-.02-2.52.41-2.52,2.15,0,1.57,1.45,2.26,2.52,2.38v-4.53Z"/>
        <path class="cls-3" d="M484.34,623.02h1.15v4.36h-1.15v-4.36Z"/>
        <path class="cls-3" d="M477.96,621.15c-.16-.78-.25-1.89-.25-2.95,0-1.64.3-2.7.97-3.44.53-.6,1.34-.93,2.26-.93,1.57,0,2.61.99,3.03,2.24h.05c.32-.92,1.16-1.46,2.4-1.75,1.66-.39,2.8-.67,3.26-.92v1.59c-.34.19-1.36.46-2.84.79-1.64.35-2.26.99-2.31,2.38v1.45h5.15v1.53h-11.73ZM483.37,619.61v-1.57c0-1.64-.9-2.68-2.26-2.68-1.53,0-2.2,1.11-2.22,2.73,0,.74.07,1.27.14,1.52h4.34Z"/>
        <path class="cls-3" d="M485.35,603.91c3.16,0,4.53,2.19,4.53,4.25,0,2.31-1.69,4.09-4.39,4.09-2.86,0-4.53-1.87-4.53-4.23s1.78-4.11,4.39-4.11ZM485.44,610.69c1.87,0,3.28-1.08,3.28-2.59s-1.39-2.59-3.32-2.59c-1.45,0-3.28.72-3.28,2.56s1.69,2.63,3.32,2.63Z"/>
        <path class="cls-3" d="M487.36,594.81c.88,0,1.66-.02,2.33-.07v1.38l-1.39.09v.04c.69.41,1.59,1.31,1.59,2.82,0,1.34-.74,2.95-3.74,2.95h-4.99v-1.55h4.73c1.62,0,2.72-.49,2.72-1.9,0-1.04-.72-1.76-1.41-2.05-.23-.09-.51-.14-.79-.14h-5.24v-1.55h6.21Z"/>
        <path class="cls-3" d="M488.1,592.45c.3-.46.62-1.27.62-2.05,0-1.13-.56-1.66-1.27-1.66-.74,0-1.15.44-1.57,1.59-.55,1.53-1.39,2.26-2.42,2.26-1.38,0-2.5-1.11-2.5-2.95,0-.86.25-1.62.53-2.1l1.13.39c-.21.33-.49.95-.49,1.75,0,.92.53,1.43,1.16,1.43.71,0,1.02-.51,1.45-1.62.56-1.48,1.31-2.24,2.57-2.24,1.5,0,2.56,1.16,2.56,3.19,0,.93-.23,1.8-.58,2.4l-1.18-.39Z"/>
        <path class="cls-3" d="M488.1,585.46c.3-.46.62-1.27.62-2.05,0-1.13-.56-1.66-1.27-1.66-.74,0-1.15.44-1.57,1.59-.55,1.53-1.39,2.26-2.42,2.26-1.38,0-2.5-1.11-2.5-2.94,0-.86.25-1.62.53-2.1l1.13.39c-.21.34-.49.95-.49,1.75,0,.92.53,1.43,1.16,1.43.71,0,1.02-.51,1.45-1.62.56-1.48,1.31-2.24,2.57-2.24,1.5,0,2.56,1.16,2.56,3.19,0,.94-.23,1.8-.58,2.4l-1.18-.39Z"/>
        <path class="cls-3" d="M485.7,577.4c2.1-.04,2.96-1.38,2.96-2.93,0-1.11-.19-1.78-.44-2.36l1.11-.26c.25.55.53,1.48.53,2.84,0,2.63-1.73,4.2-4.3,4.2s-4.6-1.52-4.6-4c0-2.79,2.45-3.53,4.02-3.53.32,0,.56.04.72.05v6ZM484.59,572.85c-.99-.02-2.52.41-2.52,2.15,0,1.57,1.45,2.26,2.52,2.38v-4.53Z"/>
        <path class="cls-3" d="M484.34,562.09h1.15v4.36h-1.15v-4.36Z"/>
        <path class="cls-3" d="M477.96,556.48c-.14-.67-.25-1.73-.25-2.8,0-1.53.26-2.52.86-3.26.46-.62,1.16-.99,2.1-.99,1.15,0,2.15.76,2.61,2.01h.04c.28-1.13,1.22-2.45,2.98-2.45,1.02,0,1.8.41,2.38,1,.76.83,1.11,2.17,1.11,4.11,0,1.06-.07,1.87-.14,2.38h-11.69ZM482.83,554.95v-1.39c0-1.62-.85-2.57-1.99-2.57-1.39,0-1.94,1.06-1.94,2.61,0,.71.05,1.11.11,1.36h3.83ZM488.52,554.95c.05-.3.07-.74.07-1.29,0-1.59-.58-3.05-2.31-3.05-1.62,0-2.29,1.39-2.29,3.07v1.27h4.53Z"/>
        <path class="cls-3" d="M489.69,542.25l-1.08.12v.05c.67.48,1.27,1.39,1.27,2.61,0,1.73-1.22,2.61-2.45,2.61-2.06,0-3.19-1.83-3.17-5.13h-.18c-.71,0-1.98.19-1.98,1.94,0,.79.25,1.62.63,2.22l-1.02.35c-.46-.71-.76-1.73-.76-2.8,0-2.61,1.78-3.24,3.49-3.24h3.19c.74,0,1.46-.04,2.05-.14v1.41ZM485.33,542.48c-.04,1.69.26,3.62,1.92,3.62,1,0,1.48-.67,1.48-1.46,0-1.11-.71-1.82-1.43-2.06-.16-.05-.33-.09-.49-.09h-1.48Z"/>
        <path class="cls-3" d="M477.16,538.47v-1.55h12.52v1.55h-12.52Z"/>
        <path class="cls-3" d="M489.69,529.58l-1.08.12v.05c.67.48,1.27,1.39,1.27,2.61,0,1.73-1.22,2.61-2.45,2.61-2.06,0-3.19-1.83-3.17-5.13h-.18c-.71,0-1.98.19-1.98,1.94,0,.79.25,1.62.63,2.22l-1.02.35c-.46-.71-.76-1.73-.76-2.8,0-2.61,1.78-3.24,3.49-3.24h3.19c.74,0,1.46-.04,2.05-.14v1.41ZM485.33,529.81c-.04,1.69.26,3.62,1.92,3.62,1,0,1.48-.67,1.48-1.46,0-1.11-.71-1.82-1.43-2.06-.16-.05-.33-.09-.49-.09h-1.48Z"/>
        <path class="cls-3" d="M481.15,518.45c.62.04,1.31.07,2.35.07h4.96c1.96,0,3.16.39,3.9,1.22.78.83,1.02,2.03,1.02,3.1s-.25,2.15-.71,2.84l-1.18-.39c.35-.56.67-1.45.67-2.5,0-1.59-.83-2.75-2.98-2.75h-.95v.04c.79.48,1.43,1.39,1.43,2.72,0,2.12-1.8,3.63-4.16,3.63-2.89,0-4.53-1.89-4.53-3.84,0-1.48.78-2.29,1.48-2.66v-.04l-1.29-.07v-1.36ZM484.52,520.06c-.26,0-.49.02-.71.09-.9.28-1.64,1.04-1.64,2.17,0,1.48,1.25,2.54,3.23,2.54,1.68,0,3.07-.85,3.07-2.52,0-.95-.6-1.82-1.59-2.15-.26-.09-.56-.12-.83-.12h-1.53Z"/>
        <path class="cls-3" d="M483.46,516.05c-.88,0-1.6.02-2.31.07v-1.38l1.41-.09v-.04c-.81-.42-1.61-1.41-1.61-2.82,0-1.18.71-3.02,3.63-3.02h5.1v1.55h-4.92c-1.38,0-2.52.51-2.52,1.98,0,1.02.72,1.82,1.59,2.08.19.07.46.11.72.11h5.13v1.55h-6.23Z"/>
        <path class="cls-3" d="M485.7,505.4c2.1-.04,2.96-1.38,2.96-2.93,0-1.11-.19-1.78-.44-2.36l1.11-.26c.25.55.53,1.48.53,2.84,0,2.63-1.73,4.2-4.3,4.2s-4.6-1.52-4.6-4c0-2.79,2.45-3.53,4.02-3.53.32,0,.56.04.72.05v6ZM484.59,500.85c-.99-.02-2.52.41-2.52,2.15,0,1.57,1.45,2.26,2.52,2.38v-4.53Z"/>
        <path class="cls-3" d="M565.05,599.78c.28.56.56,1.69.56,3.14,0,3.35-2.12,5.87-6.01,5.87s-6.24-2.52-6.24-6.21c0-1.48.32-2.42.53-2.82l1.25.37c-.28.58-.49,1.41-.49,2.4,0,2.79,1.78,4.64,4.9,4.64,2.91,0,4.78-1.68,4.78-4.57,0-.93-.19-1.89-.49-2.5l1.22-.32Z"/>
        <path class="cls-3" d="M565.05,589.92c.28.56.56,1.69.56,3.14,0,3.35-2.12,5.87-6.01,5.87s-6.24-2.52-6.24-6.21c0-1.48.32-2.42.53-2.82l1.25.37c-.28.58-.49,1.41-.49,2.4,0,2.79,1.78,4.64,4.9,4.64,2.91,0,4.78-1.68,4.78-4.57,0-.93-.19-1.89-.49-2.5l1.22-.32Z"/>
        <path class="cls-3" d="M552.92,576.94h10.32c.76,0,1.62-.02,2.2-.07v1.39l-1.48.07v.04c.95.48,1.67,1.52,1.67,2.91,0,2.06-1.75,3.65-4.34,3.65-2.84.02-4.59-1.75-4.59-3.83,0-1.31.62-2.19,1.31-2.57v-.04h-5.1v-1.55ZM560.38,578.49c-.19,0-.46.02-.65.07-.99.23-1.8,1.08-1.8,2.24,0,1.6,1.41,2.56,3.3,2.56,1.73,0,3.16-.85,3.16-2.52,0-1.04-.69-1.99-1.85-2.28-.21-.05-.42-.07-.67-.07h-1.48Z"/>
        <path class="cls-3" d="M561.45,573.5c2.1-.04,2.96-1.38,2.96-2.93,0-1.11-.19-1.78-.44-2.36l1.11-.26c.25.55.53,1.48.53,2.84,0,2.63-1.73,4.2-4.3,4.2s-4.6-1.52-4.6-4c0-2.79,2.45-3.53,4.02-3.53.32,0,.56.04.72.05v6ZM560.34,568.95c-.99-.02-2.52.41-2.52,2.15,0,1.57,1.45,2.26,2.52,2.38v-4.53Z"/>
        <path class="cls-3" d="M552.92,561.79v-1.55h12.52v1.55h-12.52Z"/>
        <path class="cls-3" d="M553.36,556.48l4.23.3v.95l-4.23.28v-1.53Z"/>
        <path class="cls-3" d="M559.37,544.15c4.09,0,6.26,2.49,6.26,5.52s-2.43,5.34-6.03,5.34c-3.77,0-6.24-2.35-6.24-5.52s2.49-5.34,6.01-5.34ZM559.57,553.37c2.54,0,4.81-1.38,4.81-3.79s-2.24-3.81-4.94-3.81c-2.36,0-4.83,1.23-4.83,3.79s2.35,3.81,4.96,3.81Z"/>
        <path class="cls-3" d="M559.57,542.21c-1,0-1.87.02-2.66.07v-1.36l1.67-.05v-.07c-1.15-.39-1.87-1.32-1.87-2.36,0-.18.02-.3.05-.44h1.46c-.04.16-.05.32-.05.53,0,1.09.83,1.87,1.99,2.08.21.04.46.07.72.07h4.55v1.53h-5.87Z"/>
        <path class="cls-3" d="M554.51,534.64c.53-.02.95.37.95.99,0,.55-.42.93-.95.93s-.97-.41-.97-.97.42-.95.97-.95ZM565.44,536.37h-8.54v-1.55h8.54v1.55Z"/>
        <path class="cls-3" d="M561.45,531.38c2.1-.04,2.96-1.38,2.96-2.93,0-1.11-.19-1.78-.44-2.36l1.11-.26c.25.55.53,1.48.53,2.84,0,2.63-1.73,4.2-4.3,4.2s-4.6-1.52-4.6-4c0-2.79,2.45-3.53,4.02-3.53.32,0,.56.04.72.05v6ZM560.34,526.83c-.99-.02-2.52.41-2.52,2.15,0,1.57,1.45,2.26,2.52,2.38v-4.53Z"/>
        <path class="cls-3" d="M559.21,523.41c-.88,0-1.6.02-2.31.07v-1.38l1.41-.09v-.04c-.81-.42-1.61-1.41-1.61-2.82,0-1.18.71-3.02,3.63-3.02h5.1v1.55h-4.92c-1.38,0-2.52.51-2.52,1.98,0,1.02.72,1.82,1.59,2.08.19.07.46.11.72.11h5.13v1.55h-6.23Z"/>
        <path class="cls-3" d="M554.45,511.82h2.45v-2.22h1.18v2.22h4.6c1.06,0,1.66-.3,1.66-1.16,0-.41-.05-.71-.11-.9l1.16-.07c.12.3.21.78.21,1.38,0,.72-.23,1.31-.65,1.67-.46.44-1.22.6-2.22.6h-4.66v1.32h-1.18v-1.32h-2.05l-.41-1.52Z"/>
        <path class="cls-3" d="M561.45,507.09c2.1-.04,2.96-1.38,2.96-2.93,0-1.11-.19-1.78-.44-2.36l1.11-.26c.25.55.53,1.48.53,2.84,0,2.63-1.73,4.2-4.3,4.2s-4.6-1.52-4.6-4c0-2.79,2.45-3.53,4.02-3.53.32,0,.56.04.72.05v6ZM560.34,502.54c-.99-.02-2.52.41-2.52,2.15,0,1.57,1.45,2.26,2.52,2.38v-4.53Z"/>
        <path class="cls-3" d="M640.46,631.69c.28.56.56,1.69.56,3.14,0,3.35-2.12,5.87-6.01,5.87s-6.24-2.52-6.24-6.21c0-1.48.32-2.42.53-2.82l1.25.37c-.28.58-.49,1.41-.49,2.4,0,2.79,1.78,4.64,4.9,4.64,2.91,0,4.78-1.68,4.78-4.57,0-.93-.19-1.89-.49-2.5l1.22-.32Z"/>
        <path class="cls-3" d="M640.46,621.83c.28.56.56,1.69.56,3.14,0,3.35-2.12,5.87-6.01,5.87s-6.24-2.52-6.24-6.21c0-1.48.32-2.42.53-2.82l1.25.37c-.28.58-.49,1.41-.49,2.4,0,2.79,1.78,4.64,4.9,4.64,2.91,0,4.78-1.68,4.78-4.57,0-.93-.19-1.89-.49-2.5l1.22-.32Z"/>
        <path class="cls-3" d="M628.33,608.84h10.32c.76,0,1.62-.02,2.2-.07v1.39l-1.48.07v.04c.95.48,1.68,1.52,1.68,2.91,0,2.06-1.75,3.65-4.34,3.65-2.84.02-4.59-1.75-4.59-3.83,0-1.31.62-2.19,1.31-2.57v-.04h-5.1v-1.55ZM635.79,610.4c-.19,0-.46.02-.65.07-.99.23-1.8,1.08-1.8,2.24,0,1.6,1.41,2.56,3.3,2.56,1.73,0,3.16-.85,3.16-2.52,0-1.04-.69-1.99-1.85-2.28-.21-.05-.42-.07-.67-.07h-1.48Z"/>
        <path class="cls-3" d="M636.87,605.4c2.1-.04,2.96-1.38,2.96-2.93,0-1.11-.19-1.78-.44-2.36l1.11-.26c.25.55.53,1.48.53,2.84,0,2.63-1.73,4.2-4.3,4.2s-4.6-1.52-4.6-4c0-2.79,2.45-3.53,4.02-3.53.32,0,.56.04.72.05v6ZM635.76,600.85c-.99-.02-2.52.41-2.52,2.15,0,1.57,1.45,2.26,2.52,2.38v-4.53Z"/>
        <path class="cls-3" d="M635.63,583.62c-1.66.09-3.65.19-5.13.18v.05c1.39.41,2.87.9,4.51,1.5l5.77,2.1v1.16l-5.66,1.92c-1.68.56-3.21,1.04-4.62,1.38v.04c1.48.04,3.47.12,5.26.23l5.1.32v1.46l-11.89-.83v-1.96l5.75-2.03c1.46-.49,2.77-.9,4-1.2v-.05c-1.2-.3-2.5-.72-4-1.25l-5.75-2.12v-1.96l11.89-.74v1.5l-5.22.3Z"/>
        <path class="cls-3" d="M640.85,574.68l-1.08.12v.05c.67.48,1.27,1.39,1.27,2.61,0,1.73-1.22,2.61-2.45,2.61-2.06,0-3.19-1.83-3.17-5.13h-.18c-.71,0-1.98.19-1.98,1.94,0,.79.25,1.62.63,2.22l-1.02.35c-.46-.71-.76-1.73-.76-2.8,0-2.61,1.78-3.24,3.49-3.24h3.19c.74,0,1.46-.04,2.05-.14v1.41ZM636.5,574.91c-.04,1.69.26,3.62,1.92,3.62,1.01,0,1.48-.67,1.48-1.46,0-1.11-.71-1.82-1.43-2.06-.16-.05-.34-.09-.49-.09h-1.48Z"/>
        <path class="cls-3" d="M634.98,570.9c-1.01,0-1.87.02-2.66.07v-1.36l1.68-.05v-.07c-1.15-.39-1.87-1.32-1.87-2.36,0-.18.02-.3.05-.44h1.46c-.04.16-.05.32-.05.53,0,1.09.83,1.87,1.99,2.08.21.04.46.07.72.07h4.55v1.53h-5.87Z"/>
        <path class="cls-3" d="M640.85,560.5l-1.08.12v.05c.67.48,1.27,1.39,1.27,2.61,0,1.73-1.22,2.61-2.45,2.61-2.06,0-3.19-1.83-3.17-5.13h-.18c-.71,0-1.98.19-1.98,1.94,0,.79.25,1.62.63,2.22l-1.02.35c-.46-.71-.76-1.73-.76-2.8,0-2.61,1.78-3.24,3.49-3.24h3.19c.74,0,1.46-.04,2.05-.14v1.41ZM636.5,560.72c-.04,1.69.26,3.62,1.92,3.62,1.01,0,1.48-.67,1.48-1.46,0-1.11-.71-1.82-1.43-2.06-.16-.05-.34-.09-.49-.09h-1.48Z"/>
        <path class="cls-3" d="M634.63,556.72c-.88,0-1.61.02-2.31.07v-1.38l1.41-.09v-.04c-.81-.42-1.6-1.41-1.6-2.82,0-1.18.71-3.02,3.63-3.02h5.1v1.55h-4.92c-1.38,0-2.52.51-2.52,1.98,0,1.02.72,1.82,1.59,2.08.19.07.46.11.72.11h5.13v1.55h-6.23Z"/>
        <path class="cls-3" d="M640.85,542.2l-1.08.12v.05c.67.48,1.27,1.39,1.27,2.61,0,1.73-1.22,2.61-2.45,2.61-2.06,0-3.19-1.83-3.17-5.13h-.18c-.71,0-1.98.19-1.98,1.94,0,.79.25,1.62.63,2.22l-1.02.35c-.46-.71-.76-1.73-.76-2.8,0-2.61,1.78-3.24,3.49-3.24h3.19c.74,0,1.46-.04,2.05-.14v1.41ZM636.5,542.43c-.04,1.69.26,3.61,1.92,3.61,1.01,0,1.48-.67,1.48-1.46,0-1.11-.71-1.82-1.43-2.06-.16-.05-.34-.09-.49-.09h-1.48Z"/>
        <path class="cls-3" d="M635.51,535.67h1.15v4.36h-1.15v-4.36Z"/>
        <path class="cls-3" d="M640.32,523.67c.25.69.65,2.05.65,3.65,0,1.8-.46,3.28-1.57,4.44-.99,1.02-2.57,1.66-4.43,1.66-3.55-.02-6.14-2.45-6.14-6.44,0-1.38.3-2.45.55-2.96l1.25.37c-.28.63-.51,1.43-.51,2.63,0,2.89,1.8,4.78,4.78,4.78s4.8-1.82,4.8-4.59c0-1-.14-1.69-.32-2.05h-3.55v2.42h-1.23v-3.92h5.71Z"/>
        <path class="cls-3" d="M636.51,513.56c3.16,0,4.53,2.19,4.53,4.25,0,2.31-1.69,4.09-4.39,4.09-2.86,0-4.53-1.87-4.53-4.23s1.78-4.11,4.39-4.11ZM636.6,520.33c1.87,0,3.28-1.08,3.28-2.59s-1.39-2.59-3.32-2.59c-1.45,0-3.28.72-3.28,2.56s1.69,2.63,3.32,2.63Z"/>
        <path class="cls-3" d="M628.33,511.6v-1.55h12.52v1.55h-12.52Z"/>
        <path class="cls-3" d="M636.51,499.71c3.16,0,4.53,2.19,4.53,4.25,0,2.31-1.69,4.09-4.39,4.09-2.86,0-4.53-1.87-4.53-4.23s1.78-4.11,4.39-4.11ZM636.6,506.48c1.87,0,3.28-1.08,3.28-2.59s-1.39-2.59-3.32-2.59c-1.45,0-3.28.72-3.28,2.56s1.69,2.63,3.32,2.63Z"/>
        <path class="cls-3" d="M717.19,611.08c.28.56.56,1.69.56,3.14,0,3.35-2.12,5.87-6.01,5.87s-6.24-2.52-6.24-6.21c0-1.48.32-2.42.53-2.82l1.25.37c-.28.58-.49,1.41-.49,2.4,0,2.79,1.78,4.64,4.9,4.64,2.91,0,4.78-1.68,4.78-4.57,0-.93-.19-1.89-.49-2.5l1.22-.32Z"/>
        <path class="cls-3" d="M717.19,601.22c.28.56.56,1.69.56,3.14,0,3.35-2.12,5.87-6.01,5.87s-6.24-2.52-6.24-6.21c0-1.48.32-2.42.53-2.82l1.25.37c-.28.58-.49,1.41-.49,2.4,0,2.79,1.78,4.64,4.9,4.64,2.91,0,4.78-1.68,4.78-4.57,0-.93-.19-1.89-.49-2.5l1.22-.32Z"/>
        <path class="cls-3" d="M705.05,588.24h10.32c.76,0,1.62-.02,2.2-.07v1.39l-1.48.07v.04c.95.48,1.68,1.52,1.68,2.91,0,2.06-1.75,3.65-4.34,3.65-2.84.02-4.59-1.75-4.59-3.83,0-1.31.62-2.19,1.31-2.57v-.04h-5.1v-1.55ZM712.52,589.79c-.19,0-.46.02-.65.07-.99.23-1.8,1.08-1.8,2.24,0,1.6,1.41,2.56,3.3,2.56,1.73,0,3.16-.85,3.16-2.52,0-1.04-.69-1.99-1.85-2.28-.21-.05-.42-.07-.67-.07h-1.48Z"/>
        <path class="cls-3" d="M715.25,578.52c.88,0,1.66-.02,2.33-.07v1.38l-1.39.09v.04c.69.41,1.59,1.31,1.59,2.82,0,1.34-.74,2.95-3.74,2.95h-4.99v-1.55h4.73c1.62,0,2.72-.49,2.72-1.9,0-1.04-.72-1.76-1.41-2.05-.23-.09-.51-.14-.79-.14h-5.24v-1.55h6.21Z"/>
        <path class="cls-3" d="M717.19,563.84c.28.56.56,1.69.56,3.14,0,3.35-2.12,5.87-6.01,5.87s-6.24-2.52-6.24-6.21c0-1.48.32-2.42.53-2.82l1.25.37c-.28.58-.49,1.41-.49,2.4,0,2.79,1.78,4.64,4.9,4.64,2.91,0,4.78-1.68,4.78-4.57,0-.93-.19-1.89-.49-2.5l1.22-.32Z"/>
        <path class="cls-3" d="M717.58,557.37l-1.08.12v.05c.67.48,1.27,1.39,1.27,2.61,0,1.73-1.22,2.61-2.45,2.61-2.06,0-3.19-1.83-3.17-5.13h-.18c-.71,0-1.98.19-1.98,1.94,0,.79.25,1.62.63,2.22l-1.02.35c-.46-.71-.76-1.73-.76-2.8,0-2.61,1.78-3.24,3.49-3.24h3.19c.74,0,1.46-.04,2.05-.14v1.41ZM713.22,557.6c-.04,1.69.26,3.62,1.92,3.62,1.01,0,1.48-.67,1.48-1.46,0-1.11-.71-1.82-1.43-2.06-.16-.05-.34-.09-.49-.09h-1.48Z"/>
        <path class="cls-3" d="M711.83,553.59c-1.09,0-1.98.04-2.79.07v-1.39l1.46-.07v-.04c-1.04-.63-1.66-1.64-1.66-3.03,0-2.06,1.75-3.62,4.34-3.62,3.07,0,4.59,1.87,4.59,3.88,0,1.13-.49,2.12-1.34,2.63v.04h4.64v1.53h-9.24ZM714.1,552.06c.23,0,.44-.04.63-.07,1.08-.28,1.82-1.22,1.82-2.33,0-1.64-1.34-2.59-3.3-2.59-1.71,0-3.17.9-3.17,2.54,0,1.06.76,2.05,1.92,2.35.19.05.42.11.63.11h1.46Z"/>
        <path class="cls-3" d="M717.19,531.46c.28.56.56,1.69.56,3.14,0,3.35-2.12,5.87-6.01,5.87s-6.24-2.52-6.24-6.21c0-1.48.32-2.42.53-2.82l1.25.37c-.28.58-.49,1.41-.49,2.4,0,2.79,1.78,4.64,4.9,4.64,2.91,0,4.78-1.68,4.78-4.57,0-.93-.19-1.89-.49-2.5l1.22-.32Z"/>
        <path class="cls-3" d="M713.24,522.06c3.16,0,4.53,2.19,4.53,4.25,0,2.31-1.69,4.09-4.39,4.09-2.86,0-4.53-1.87-4.53-4.23s1.78-4.11,4.39-4.11ZM713.33,528.83c1.87,0,3.28-1.08,3.28-2.59s-1.39-2.59-3.32-2.59c-1.45,0-3.28.72-3.28,2.56s1.69,2.63,3.32,2.63Z"/>
        <path class="cls-3" d="M711.7,520.1c-1.01,0-1.87.02-2.66.07v-1.36l1.68-.05v-.07c-1.15-.39-1.87-1.32-1.87-2.36,0-.18.02-.3.05-.44h1.46c-.04.16-.05.32-.05.53,0,1.09.83,1.87,1.99,2.08.21.04.46.07.72.07h4.55v1.53h-5.87Z"/>
        <path class="cls-3" d="M715.99,514.54c.3-.46.62-1.27.62-2.05,0-1.13-.56-1.66-1.27-1.66-.74,0-1.15.44-1.57,1.59-.55,1.53-1.39,2.26-2.42,2.26-1.38,0-2.5-1.11-2.5-2.94,0-.86.25-1.62.53-2.1l1.13.39c-.21.34-.49.95-.49,1.75,0,.92.53,1.43,1.16,1.43.71,0,1.02-.51,1.45-1.62.56-1.48,1.31-2.24,2.57-2.24,1.5,0,2.56,1.16,2.56,3.19,0,.94-.23,1.8-.58,2.4l-1.18-.39Z"/>
        <path class="cls-3" d="M713.59,506.48c2.1-.04,2.96-1.38,2.96-2.93,0-1.11-.19-1.78-.44-2.36l1.11-.26c.25.55.53,1.48.53,2.84,0,2.63-1.73,4.2-4.3,4.2s-4.6-1.52-4.6-4c0-2.79,2.45-3.53,4.02-3.53.32,0,.56.04.72.05v6ZM712.48,501.93c-.99-.02-2.52.41-2.52,2.15,0,1.57,1.45,2.26,2.52,2.38v-4.53Z"/>
        <path class="cls-3" d="M792.78,631.47c.28.56.56,1.69.56,3.14,0,3.35-2.12,5.87-6.01,5.87s-6.24-2.52-6.24-6.21c0-1.48.32-2.42.53-2.82l1.25.37c-.28.58-.49,1.41-.49,2.4,0,2.79,1.78,4.64,4.9,4.64,2.91,0,4.78-1.68,4.78-4.57,0-.93-.19-1.89-.49-2.5l1.22-.32Z"/>
        <path class="cls-3" d="M792.78,621.61c.28.56.56,1.69.56,3.14,0,3.35-2.12,5.87-6.01,5.87s-6.24-2.52-6.24-6.21c0-1.48.32-2.42.53-2.82l1.25.37c-.28.58-.49,1.41-.49,2.4,0,2.79,1.78,4.64,4.9,4.64,2.91,0,4.78-1.68,4.78-4.57,0-.93-.19-1.89-.49-2.5l1.22-.32Z"/>
        <path class="cls-3" d="M780.65,608.62h10.32c.76,0,1.62-.02,2.2-.07v1.39l-1.48.07v.04c.95.48,1.68,1.52,1.68,2.91,0,2.06-1.75,3.65-4.34,3.65-2.84.02-4.59-1.75-4.59-3.83,0-1.31.62-2.19,1.31-2.57v-.04h-5.1v-1.55ZM788.11,610.18c-.19,0-.46.02-.65.07-.99.23-1.8,1.08-1.8,2.24,0,1.6,1.41,2.56,3.3,2.56,1.73,0,3.16-.85,3.16-2.52,0-1.04-.69-1.99-1.85-2.28-.21-.05-.42-.07-.67-.07h-1.48Z"/>
        <path class="cls-3" d="M790.84,598.91c.88,0,1.66-.02,2.33-.07v1.38l-1.39.09v.04c.69.41,1.59,1.31,1.59,2.82,0,1.34-.74,2.95-3.74,2.95h-4.99v-1.55h4.73c1.62,0,2.72-.49,2.72-1.9,0-1.04-.72-1.76-1.41-2.05-.23-.09-.51-.14-.79-.14h-5.24v-1.55h6.21Z"/>
        <path class="cls-3" d="M792.78,584.23c.28.56.56,1.69.56,3.14,0,3.35-2.12,5.87-6.01,5.87s-6.24-2.52-6.24-6.21c0-1.48.32-2.42.53-2.82l1.25.37c-.28.58-.49,1.41-.49,2.4,0,2.79,1.78,4.64,4.9,4.64,2.91,0,4.78-1.68,4.78-4.57,0-.93-.19-1.89-.49-2.5l1.22-.32Z"/>
        <path class="cls-3" d="M789.18,581.69c2.1-.04,2.96-1.38,2.96-2.93,0-1.11-.19-1.78-.44-2.36l1.11-.26c.25.55.53,1.48.53,2.84,0,2.63-1.73,4.2-4.3,4.2s-4.6-1.52-4.6-4c0-2.79,2.45-3.53,4.02-3.53.32,0,.56.04.72.05v6ZM788.07,577.14c-.99-.02-2.52.41-2.52,2.15,0,1.57,1.45,2.26,2.52,2.38v-4.53Z"/>
        <path class="cls-3" d="M786.94,573.72c-.88,0-1.61.02-2.31.07v-1.38l1.41-.09v-.04c-.81-.42-1.6-1.41-1.6-2.82,0-1.18.71-3.02,3.63-3.02h5.1v1.55h-4.92c-1.38,0-2.52.51-2.52,1.98,0,1.02.72,1.82,1.59,2.08.19.07.46.11.72.11h5.13v1.55h-6.23Z"/>
        <path class="cls-3" d="M782.18,562.13h2.45v-2.22h1.18v2.22h4.6c1.06,0,1.66-.3,1.66-1.16,0-.41-.05-.71-.11-.9l1.16-.07c.12.3.21.78.21,1.38,0,.72-.23,1.31-.65,1.68-.46.44-1.22.6-2.22.6h-4.66v1.32h-1.18v-1.32h-2.05l-.41-1.52Z"/>
        <path class="cls-3" d="M787.3,558.16c-1.01,0-1.87.02-2.66.07v-1.36l1.68-.05v-.07c-1.15-.39-1.87-1.32-1.87-2.36,0-.18.02-.3.05-.44h1.46c-.04.16-.05.32-.05.53,0,1.09.83,1.87,1.99,2.08.21.04.46.07.72.07h4.55v1.53h-5.87Z"/>
        <path class="cls-3" d="M789.18,551.7c2.1-.04,2.96-1.38,2.96-2.93,0-1.11-.19-1.78-.44-2.36l1.11-.26c.25.55.53,1.48.53,2.84,0,2.63-1.73,4.2-4.3,4.2s-4.6-1.52-4.6-4c0-2.79,2.45-3.53,4.02-3.53.32,0,.56.04.72.05v6ZM788.07,547.15c-.99-.02-2.52.41-2.52,2.15,0,1.57,1.45,2.26,2.52,2.38v-4.53Z"/>
        <path class="cls-3" d="M792.78,531.63c.28.56.56,1.69.56,3.14,0,3.35-2.12,5.87-6.01,5.87s-6.24-2.52-6.24-6.21c0-1.48.32-2.42.53-2.82l1.25.37c-.28.58-.49,1.41-.49,2.4,0,2.79,1.78,4.64,4.9,4.64,2.91,0,4.78-1.67,4.78-4.57,0-.94-.19-1.89-.49-2.5l1.22-.32Z"/>
        <path class="cls-3" d="M788.83,522.23c3.16,0,4.53,2.19,4.53,4.25,0,2.31-1.69,4.09-4.39,4.09-2.86,0-4.53-1.87-4.53-4.23s1.78-4.11,4.39-4.11ZM788.92,529c1.87,0,3.28-1.08,3.28-2.59s-1.39-2.59-3.32-2.59c-1.45,0-3.28.72-3.28,2.56s1.69,2.63,3.32,2.63Z"/>
        <path class="cls-3" d="M787.3,520.27c-1.01,0-1.87.02-2.66.07v-1.36l1.68-.05v-.07c-1.15-.39-1.87-1.32-1.87-2.36,0-.18.02-.3.05-.44h1.46c-.04.16-.05.32-.05.53,0,1.09.83,1.87,1.99,2.08.21.04.46.07.72.07h4.55v1.53h-5.87Z"/>
        <path class="cls-3" d="M791.58,514.71c.3-.46.62-1.27.62-2.05,0-1.13-.56-1.66-1.27-1.66-.74,0-1.15.44-1.57,1.59-.55,1.53-1.39,2.26-2.42,2.26-1.38,0-2.5-1.11-2.5-2.94,0-.86.25-1.62.53-2.1l1.13.39c-.21.34-.49.95-.49,1.75,0,.92.53,1.43,1.16,1.43.71,0,1.02-.51,1.45-1.62.56-1.48,1.31-2.24,2.57-2.24,1.5,0,2.56,1.16,2.56,3.19,0,.94-.23,1.8-.58,2.4l-1.18-.39Z"/>
        <path class="cls-3" d="M789.18,506.65c2.1-.04,2.96-1.38,2.96-2.93,0-1.11-.19-1.78-.44-2.36l1.11-.26c.25.55.53,1.48.53,2.84,0,2.63-1.73,4.2-4.3,4.2s-4.6-1.52-4.6-4c0-2.79,2.45-3.53,4.02-3.53.32,0,.56.04.72.05v6ZM788.07,502.1c-.99-.02-2.52.41-2.52,2.15,0,1.57,1.45,2.26,2.52,2.38v-4.53Z"/>
        <path class="cls-3" d="M867.48,670.21c.28.56.56,1.69.56,3.14,0,3.35-2.12,5.87-6.01,5.87s-6.24-2.52-6.24-6.21c0-1.48.32-2.42.53-2.82l1.25.37c-.28.58-.49,1.41-.49,2.4,0,2.79,1.78,4.64,4.9,4.64,2.91,0,4.78-1.68,4.78-4.57,0-.93-.19-1.89-.49-2.5l1.22-.32Z"/>
        <path class="cls-3" d="M867.48,660.35c.28.56.56,1.69.56,3.14,0,3.35-2.12,5.87-6.01,5.87s-6.24-2.52-6.24-6.21c0-1.48.32-2.42.53-2.82l1.25.37c-.28.58-.49,1.41-.49,2.4,0,2.79,1.78,4.64,4.9,4.64,2.91,0,4.78-1.68,4.78-4.57,0-.93-.19-1.89-.49-2.5l1.22-.32Z"/>
        <path class="cls-3" d="M867.87,654.69h-11.89v-1.68l6.01-3.81c1.39-.88,2.65-1.57,3.86-2.13l-.02-.04c-1.59.14-3.03.18-4.88.18h-4.97v-1.45h11.89v1.55l-6.03,3.77c-1.32.83-2.68,1.62-3.97,2.22l.02.05c1.5-.09,2.93-.12,4.9-.12h5.08v1.45Z"/>
        <path class="cls-3" d="M863.88,642.27c2.1-.04,2.96-1.38,2.96-2.93,0-1.11-.19-1.78-.44-2.36l1.11-.26c.25.55.53,1.48.53,2.84,0,2.63-1.73,4.2-4.3,4.2s-4.6-1.52-4.6-4c0-2.79,2.45-3.53,4.02-3.53.32,0,.56.04.72.05v6ZM862.77,637.72c-.99-.02-2.52.41-2.52,2.15,0,1.57,1.45,2.26,2.52,2.38v-4.53Z"/>
        <path class="cls-3" d="M867.87,634.37c-.58-.04-1.45-.07-2.2-.07h-10.32v-1.53h5.36v-.04c-.95-.55-1.57-1.53-1.57-2.91,0-2.12,1.76-3.62,4.36-3.6,3.05,0,4.57,1.92,4.57,3.83,0,1.23-.48,2.22-1.6,2.86v.05l1.41.07v1.34ZM864.44,632.76c.19,0,.39-.04.56-.07,1.08-.3,1.82-1.2,1.82-2.33,0-1.62-1.32-2.59-3.28-2.59-1.71,0-3.17.88-3.17,2.54,0,1.06.72,2.05,1.9,2.36.18.04.39.09.63.09h1.53Z"/>
        <path class="cls-3" d="M867.87,624.33c-.58-.04-1.45-.07-2.2-.07h-10.32v-1.53h5.36v-.04c-.95-.55-1.57-1.53-1.57-2.91,0-2.12,1.76-3.62,4.36-3.6,3.05,0,4.57,1.92,4.57,3.83,0,1.23-.48,2.22-1.6,2.86v.05l1.41.07v1.34ZM864.44,622.73c.19,0,.39-.04.56-.07,1.08-.3,1.82-1.2,1.82-2.33,0-1.62-1.32-2.59-3.28-2.59-1.71,0-3.17.88-3.17,2.54,0,1.06.72,2.05,1.9,2.36.18.04.39.09.63.09h1.53Z"/>
        <path class="cls-3" d="M856.93,612.5c.53-.02.95.37.95.99,0,.55-.42.93-.95.93s-.97-.41-.97-.97.42-.95.97-.95ZM867.87,614.23h-8.54v-1.55h8.54v1.55Z"/>
        <path class="cls-3" d="M865.54,602.96c.88,0,1.66-.02,2.33-.07v1.38l-1.39.09v.04c.69.41,1.59,1.31,1.59,2.82,0,1.34-.74,2.95-3.74,2.95h-4.99v-1.55h4.73c1.62,0,2.72-.49,2.72-1.9,0-1.04-.72-1.76-1.41-2.05-.23-.09-.51-.14-.79-.14h-5.24v-1.55h6.21Z"/>
        <path class="cls-3" d="M862.52,593.04h1.15v4.36h-1.15v-4.36Z"/>
        <path class="cls-3" d="M867.48,579.13c.28.56.56,1.69.56,3.14,0,3.35-2.12,5.87-6.01,5.87s-6.24-2.52-6.24-6.21c0-1.48.32-2.42.53-2.82l1.25.37c-.28.58-.49,1.41-.49,2.4,0,2.79,1.78,4.64,4.9,4.64,2.91,0,4.78-1.67,4.78-4.57,0-.94-.19-1.89-.49-2.5l1.22-.32Z"/>
        <path class="cls-3" d="M863.53,569.72c3.16,0,4.53,2.19,4.53,4.25,0,2.31-1.69,4.09-4.39,4.09-2.86,0-4.53-1.87-4.53-4.23s1.78-4.11,4.39-4.11ZM863.62,576.5c1.87,0,3.28-1.08,3.28-2.59s-1.39-2.59-3.32-2.59c-1.45,0-3.28.72-3.28,2.56s1.69,2.63,3.32,2.63Z"/>
        <path class="cls-3" d="M861.64,567.77c-.88,0-1.6.02-2.31.07v-1.38l1.41-.09v-.04c-.81-.42-1.61-1.41-1.61-2.82,0-1.18.71-3.02,3.63-3.02h5.1v1.55h-4.92c-1.38,0-2.52.51-2.52,1.98,0,1.02.72,1.82,1.59,2.08.19.07.46.11.72.11h5.13v1.55h-6.23Z"/>
        <path class="cls-3" d="M867.55,551.89c.21.41.49,1.31.49,2.45,0,2.57-1.75,4.25-4.36,4.25s-4.53-1.8-4.53-4.59c0-.92.23-1.73.44-2.15l1.2.35c-.21.37-.41.95-.41,1.8,0,1.96,1.45,3.02,3.23,3.02,1.98,0,3.19-1.27,3.19-2.96,0-.88-.23-1.46-.42-1.9l1.16-.26Z"/>
        <path class="cls-3" d="M867.87,545.35l-1.08.12v.05c.67.48,1.27,1.39,1.27,2.61,0,1.73-1.22,2.61-2.45,2.61-2.06,0-3.19-1.83-3.17-5.13h-.18c-.71,0-1.98.19-1.98,1.94,0,.79.25,1.62.63,2.22l-1.02.35c-.46-.71-.76-1.73-.76-2.8,0-2.61,1.78-3.24,3.49-3.24h3.19c.74,0,1.46-.04,2.05-.14v1.41ZM863.51,545.58c-.04,1.69.26,3.61,1.92,3.61,1,0,1.48-.67,1.48-1.46,0-1.11-.71-1.82-1.43-2.06-.16-.05-.33-.09-.49-.09h-1.48Z"/>
        <path class="cls-3" d="M855.34,530.46h10.32c.76,0,1.62-.02,2.2-.07v1.39l-1.48.07v.04c.95.48,1.67,1.52,1.67,2.91,0,2.06-1.75,3.65-4.34,3.65-2.84.02-4.59-1.75-4.59-3.83,0-1.31.62-2.19,1.31-2.57v-.04h-5.1v-1.55ZM862.8,532.01c-.19,0-.46.02-.65.07-.99.23-1.8,1.08-1.8,2.24,0,1.6,1.41,2.56,3.3,2.56,1.73,0,3.16-.85,3.16-2.52,0-1.04-.69-1.99-1.85-2.28-.21-.05-.42-.07-.67-.07h-1.48Z"/>
        <path class="cls-3" d="M855.78,526.74l4.23.3v.95l-4.23.28v-1.53Z"/>
        <path class="cls-3" d="M861.8,514.41c4.09,0,6.26,2.49,6.26,5.52s-2.43,5.34-6.03,5.34c-3.77,0-6.24-2.35-6.24-5.52s2.49-5.34,6.01-5.34ZM861.99,523.63c2.54,0,4.81-1.38,4.81-3.79s-2.24-3.81-4.94-3.81c-2.36,0-4.83,1.23-4.83,3.79s2.35,3.81,4.96,3.81Z"/>
        <path class="cls-3" d="M861.99,512.47c-1,0-1.87.02-2.66.07v-1.36l1.67-.05v-.07c-1.15-.39-1.87-1.32-1.87-2.36,0-.18.02-.3.05-.44h1.46c-.04.16-.05.32-.05.53,0,1.09.83,1.87,1.99,2.08.21.04.46.07.72.07h4.55v1.53h-5.87Z"/>
        <path class="cls-3" d="M863.53,499.15c3.16,0,4.53,2.19,4.53,4.25,0,2.31-1.69,4.09-4.39,4.09-2.86,0-4.53-1.87-4.53-4.23s1.78-4.11,4.39-4.11ZM863.62,505.92c1.87,0,3.28-1.08,3.28-2.59s-1.39-2.59-3.32-2.59c-1.45,0-3.28.72-3.28,2.56s1.69,2.63,3.32,2.63Z"/>
        <path class="cls-3" d="M945.02,615.99c.28.56.56,1.69.56,3.14,0,3.35-2.12,5.87-6.01,5.87s-6.24-2.52-6.24-6.21c0-1.48.32-2.42.53-2.82l1.25.37c-.28.58-.49,1.41-.49,2.4,0,2.79,1.78,4.64,4.9,4.64,2.91,0,4.78-1.68,4.78-4.57,0-.93-.19-1.89-.49-2.5l1.22-.32Z"/>
        <path class="cls-3" d="M945.02,606.13c.28.56.56,1.69.56,3.14,0,3.35-2.12,5.87-6.01,5.87s-6.24-2.52-6.24-6.21c0-1.48.32-2.42.53-2.82l1.25.37c-.28.58-.49,1.41-.49,2.4,0,2.79,1.78,4.64,4.9,4.64,2.91,0,4.78-1.68,4.78-4.57,0-.93-.19-1.89-.49-2.5l1.22-.32Z"/>
        <path class="cls-3" d="M933.66,600.47c-.12-.74-.23-1.71-.23-2.95,0-1.52.35-2.63.99-3.33.56-.65,1.43-1.04,2.49-1.04s1.92.32,2.54.92c.86.81,1.31,2.13,1.31,3.63,0,.46-.02.88-.11,1.23h4.76v1.53h-11.75ZM939.4,598.93c.09-.34.12-.76.12-1.27,0-1.85-.9-2.98-2.54-2.98s-2.33,1.11-2.33,2.8c0,.67.05,1.18.12,1.45h4.62Z"/>
        <path class="cls-3" d="M945.41,586.87l-1.08.12v.05c.67.48,1.27,1.39,1.27,2.61,0,1.73-1.22,2.61-2.45,2.61-2.06,0-3.19-1.83-3.17-5.13h-.18c-.71,0-1.98.19-1.98,1.94,0,.79.25,1.62.63,2.22l-1.02.35c-.46-.71-.76-1.73-.76-2.8,0-2.61,1.78-3.24,3.49-3.24h3.19c.74,0,1.46-.04,2.05-.14v1.41ZM941.05,587.1c-.04,1.69.26,3.62,1.92,3.62,1,0,1.48-.67,1.48-1.46,0-1.11-.71-1.82-1.43-2.06-.16-.05-.34-.09-.49-.09h-1.48Z"/>
        <path class="cls-3" d="M943.82,583.3c.3-.46.62-1.27.62-2.05,0-1.13-.56-1.66-1.27-1.66-.74,0-1.15.44-1.57,1.59-.55,1.53-1.39,2.26-2.42,2.26-1.37,0-2.5-1.11-2.5-2.95,0-.86.25-1.62.53-2.1l1.13.39c-.21.34-.49.95-.49,1.75,0,.92.53,1.43,1.16,1.43.71,0,1.02-.51,1.45-1.62.56-1.48,1.31-2.24,2.58-2.24,1.5,0,2.56,1.16,2.56,3.19,0,.93-.23,1.8-.58,2.4l-1.18-.39Z"/>
        <path class="cls-3" d="M944.09,570.29v.04c.85.46,1.52,1.41,1.52,2.79,0,1.99-1.73,3.62-4.32,3.62-3.19,0-4.6-2.06-4.6-3.86,0-1.32.65-2.2,1.48-2.63v-.04l-1.29-.05v-1.46c.72.04,1.46.05,2.35.05h9.68v1.55h-4.81ZM940.33,570.29c-.21,0-.46.02-.65.07-.95.23-1.76,1.06-1.76,2.22,0,1.6,1.36,2.57,3.28,2.57,1.69,0,3.17-.81,3.17-2.52,0-1.01-.62-1.87-1.69-2.22-.21-.07-.51-.12-.74-.12h-1.6Z"/>
        <path class="cls-3" d="M943.08,559.03c.88,0,1.66-.02,2.33-.07v1.38l-1.39.09v.04c.69.41,1.59,1.31,1.59,2.82,0,1.34-.74,2.95-3.74,2.95h-4.99v-1.55h4.73c1.62,0,2.72-.49,2.72-1.9,0-1.04-.72-1.76-1.41-2.05-.23-.09-.51-.14-.79-.14h-5.24v-1.55h6.21Z"/>
        <path class="cls-3" d="M945.41,551.73l-1.08.12v.05c.67.48,1.27,1.39,1.27,2.61,0,1.73-1.22,2.61-2.45,2.61-2.06,0-3.19-1.83-3.17-5.13h-.18c-.71,0-1.98.19-1.98,1.94,0,.79.25,1.62.63,2.22l-1.02.35c-.46-.71-.76-1.73-.76-2.8,0-2.61,1.78-3.24,3.49-3.24h3.19c.74,0,1.46-.04,2.05-.14v1.41ZM941.05,551.96c-.04,1.69.26,3.62,1.92,3.62,1,0,1.48-.67,1.48-1.46,0-1.11-.71-1.82-1.43-2.06-.16-.05-.34-.09-.49-.09h-1.48Z"/>
        <path class="cls-3" d="M932.89,547.95v-1.55h12.52v1.55h-12.52Z"/>
        <path class="cls-3" d="M941.42,542.93c2.1-.04,2.96-1.38,2.96-2.93,0-1.11-.19-1.78-.44-2.36l1.11-.26c.25.55.53,1.48.53,2.84,0,2.63-1.73,4.2-4.3,4.2s-4.6-1.52-4.6-4c0-2.79,2.45-3.53,4.02-3.53.32,0,.56.04.72.05v6ZM940.31,538.38c-.99-.02-2.52.41-2.52,2.15,0,1.57,1.45,2.26,2.52,2.38v-4.53Z"/>
        <path class="cls-3" d="M933.66,531.16c-.12-.74-.23-1.71-.23-2.95,0-1.52.35-2.63.99-3.33.56-.65,1.43-1.04,2.49-1.04s1.92.32,2.54.92c.86.81,1.31,2.13,1.31,3.63,0,.46-.02.88-.11,1.23h4.76v1.53h-11.75ZM939.4,529.63c.09-.33.12-.76.12-1.27,0-1.85-.9-2.98-2.54-2.98s-2.33,1.11-2.33,2.8c0,.67.05,1.18.12,1.45h4.62Z"/>
        <path class="cls-3" d="M945.41,517.56l-1.08.12v.05c.67.48,1.27,1.39,1.27,2.61,0,1.73-1.22,2.61-2.45,2.61-2.06,0-3.19-1.83-3.17-5.13h-.18c-.71,0-1.98.19-1.98,1.94,0,.79.25,1.62.63,2.22l-1.02.35c-.46-.71-.76-1.73-.76-2.8,0-2.61,1.78-3.24,3.49-3.24h3.19c.74,0,1.46-.04,2.05-.14v1.41ZM941.05,517.79c-.04,1.69.26,3.62,1.92,3.62,1,0,1.48-.67,1.48-1.46,0-1.11-.71-1.82-1.43-2.06-.16-.05-.34-.09-.49-.09h-1.48Z"/>
        <path class="cls-3" d="M941.07,506.06c3.16,0,4.53,2.19,4.53,4.25,0,2.31-1.69,4.09-4.39,4.09-2.86,0-4.53-1.87-4.53-4.23s1.78-4.11,4.39-4.11ZM941.16,512.84c1.87,0,3.28-1.08,3.28-2.59s-1.39-2.59-3.32-2.59c-1.45,0-3.28.72-3.28,2.56s1.69,2.63,3.31,2.63Z"/>
        <path class="cls-3" d="M932.89,504.1v-1.55h12.52v1.55h-12.52Z"/>
        <path class="cls-3" d="M934.48,498.21c.53-.02.95.37.95.99,0,.55-.42.94-.95.94s-.97-.41-.97-.97.42-.95.97-.95ZM945.41,499.94h-8.54v-1.55h8.54v1.55Z"/>
      </g>
      <path class="cercle-cls-2" d="M307.97,347.86c19.36-9.93-29.9-82.48-9.5-149.84,21.84-72.12,121.16-127.54,207.88-126.25,106.1,1.58,150.52,87.38,284.91,136.8,6.2,2.28,28.07,10.17,49.6,29.55,11.77,10.59,58.08,52.26,45.97,101.26-8.92,36.11-46.6,64.22-92.81,67.7l-23.86,7.26s-54.42,84.42-112.69,0l-167.72,1.75s-45.16,63.18-99.39,13.29c-4.2-3.86-14.36-16.12-16.76-34.72-.75-5.82-3.18-24.67,9.28-40.47,10.41-13.21,25.2-16.63,28.49-17.31,29.43-6.05,65.87,11.65,72.51,30.71,4.52,12.98,167.56,4.85,167.56,4.85,7.31-23.79,27.32-41.04,50.52-43.68,28.16-3.2,56.29,15.67,65.03,45.47,6.42-.88,62.06-9.12,68.91-39.12,1.97-8.64-.49-16.88-3.84-23.36-26.02-50.43-119.21-68.55-168.64-110.67-49.43-42.12-132.54-103.57-210.23-77.59-77.69,25.98-127.51,73.77-115.79,137.99,11.72,64.22,39,138.33,1.62,145.59-37.38,7.26-75.37-28.61-103.86-48.66-8.96-8.39-29.58,22.3-73.87-32.71l14.77-21.1-32.71-28.49,13.72-14.62,32.71,28.34,7.39-9.5-29.5-26.07,13.67-16.14,28.18,23.37,15.09-14.93s45.38,31.66,44.32,46.43c-.8,11.18-3.78,17.49,0,28.49,6.01,17.48,29.09,31.48,39.04,26.38Z"/>
    </g>
  </g>
</svg>