<?xml version="1.0" encoding="UTF-8"?>
<svg id="Calque_2" xmlns="http://www.w3.org/2000/svg" viewBox="0 0 832 832">
  <defs>
    <style>
      .cls-1 {
        fill: #ffd219;
      }

      .cls-2 {
        fill: #4cc3d6;
      }

      .cls-3 {
        fill: #fff;
      }

      .cls-4 {
        fill: #e0c48a;
      }

      .cls-5 {
        fill: #f9a800;
      }

      .cls-6 {
        fill: #c4c4c4;
      }

      .cls-7 {
        fill: #eab8d1;
      }

      .cls-8 {
        fill: #b5e0a6;
      }

      .cls-9 {
        fill: #ff6f61;
      }

      .cls-10 {
        fill: #a8d8b9;
      }

      .cls-11 {
        fill: #5a9bd5;
      }

      .cls-12 {
        fill: #ff5e20;
      }
    </style>
  </defs>
  <g id="Calque_2-2" data-name="Calque_2">
    <g>
      <path class="cls-1" d="M831.75,416c0,50.25-8.92,98.41-25.24,142.99l-.38-.14-220.2-83.21c6.53-18.88,10.08-39.17,10.08-60.28,0-100.61-80.54-182.4-180.65-184.45V.25h.64c229.62,0,415.75,186.13,415.75,415.75Z"/>
      <path class="cls-5" d="M806.13,558.85l.38.14c-13.86,37.86-33.08,73.14-56.73,104.93h-.03s-187.76-141.79-187.76-141.79c10.04-14.16,18.17-29.78,23.93-46.49l220.2,83.21Z"/>
      <path class="cls-12" d="M749.75,663.91h.03c-11.42,15.36-23.87,29.89-37.24,43.5l-166.49-165.21-.29-.28c5.86-6.2,11.29-12.81,16.25-19.78l187.76,141.78Z"/>
      <path class="cls-9" d="M712.53,707.41c-14,14.23-29.01,27.47-44.92,39.59l-139.51-188.14-.26-.31c6.33-5.14,12.31-10.7,17.9-16.63l.29.28,166.49,165.21Z"/>
      <path class="cls-4" d="M528.11,558.85l139.51,188.14c-16.18,12.31-33.29,23.47-51.2,33.34l-113.77-204.53c8.89-5.06,17.32-10.84,25.2-17.26l.26.31Z"/>
      <path class="cls-8" d="M502.65,575.8l113.77,204.53c-59.43,32.77-127.75,51.41-200.42,51.41-62.05,0-120.93-13.59-173.82-37.97l.22-.46,95.96-208.54c22.43,9.7,47.16,15.08,73.16,15.08,33.14,0,64.25-8.74,91.13-24.05Z"/>
      <path class="cls-3" d="M415.36,230.87v.04c-1.28-.03-2.56-.04-3.84-.04-2.58,0-5.12.05-7.67.17v-.17S387.25,1.24,387.25,1.24c9.29-.64,18.67-.97,28.11-.99v230.62Z"/>
      <path class="cls-7" d="M403.83,230.87v.17c-8.67.35-17.21,1.31-25.55,2.82l-.08-.42L329.53,9.26c18.8-3.98,38.06-6.69,57.72-8.02l16.58,229.63Z"/>
      <path class="cls-6" d="M378.2,233.43l.08.42c-12.95,2.36-25.43,6.07-37.3,10.98L246.33,36.33c26.39-11.81,54.23-20.95,83.2-27.07l48.67,224.17Z"/>
      <path class="cls-11" d="M246.33,36.33l94.66,208.5c-33.96,14.07-62.82,37.97-82.98,68.19l-.23-.15-190.76-122.91c43.48-66.99,105.74-120.69,179.32-153.63Z"/>
      <path class="cls-10" d="M338.36,584.77l-95.96,208.54-.22.46c-54.68-25.19-102.96-61.92-141.71-107.04l172.68-148.38.49-.44c17.77,20,39.82,36.09,64.73,46.85Z"/>
      <path class="cls-2" d="M273.63,537.92l-.49.44-172.68,148.38C37.99,614,.25,519.41.25,416c0-83.35,24.52-160.97,66.76-226.04l190.76,122.91.23.15c-19.58,29.29-30.98,64.48-30.98,102.34,0,47.05,17.62,89.98,46.61,122.56Z"/>
    </g>
  </g>
</svg>